<svg xmlns="http://www.w3.org/2000/svg" xmlns:xlink="http://www.w3.org/1999/xlink" version="1.1" x="0px" y="0px" viewBox="0 0 65 81.25" enable-background="new 0 0 65 65" xml:space="preserve"><g><rect x="13.7" y="8.5" width="20.8" height="1.5"/><rect x="13.7" y="12.8" width="16.5" height="1.5"/><rect x="29.4" y="45.1" width="10.1" height="1.5"/><rect x="29.4" y="49.5" width="20.5" height="1.5"/><path d="M65,40V13.3H43.6v5.4l-3.5,0l0-11.5c0-2.6-2.1-4.7-4.7-4.8l-30.1,0v0.1c-0.1,0-0.3,0-0.4,0C2.2,2.4,0,4.6,0,7.2V9h8.1v19.9   H3.7c-1.5,0-2.7,1.2-2.7,2.7c0,1.5,1.2,2.7,2.7,2.7h4.5l0,7.1c0,2.7,2.2,4.8,4.8,4.8h11.5l0,11.5c0,2.7,2.2,4.8,4.8,4.8   c0,0,0,0,0,0l30,0c2.4,0,4.2-1.9,4.2-4.5c0-0.4,0-1.4,0-1.4l0-0.7h-7V40H65z M45.1,14.8h18.5v23.7H45.1V14.8z M8.1,7.5H1.5V7.2   c0-1.8,1.5-3.3,3.3-3.3s3.3,1.5,3.3,3.3V7.5z M9.6,7.2c0-1.3-0.5-2.5-1.4-3.3l27,0c1.8,0,3.3,1.5,3.3,3.3l0,11.5l-17,0v0.1   c-0.1,0-0.3,0-0.4,0c-2.7,0-4.8,2.2-4.8,4.8l0,5.4H9.6L9.6,7.2z M24.4,23.6l0,5.4h-6.6l0-5.4c0-1.8,1.5-3.3,3.3-3.3   C22.9,20.2,24.4,21.7,24.4,23.6z M2.4,31.6c0-0.7,0.6-1.2,1.2-1.2h22.9l0,2.5H3.7C3,32.9,2.4,32.3,2.4,31.6z M29.3,30.4l2.5,1.2   l-2.5,1.2h-1.2l0-2.5H29.3z M9.6,41.4l0-7.1h6.6l0,7.1c0,1.8-1.5,3.3-3.3,3.3S9.6,43.3,9.6,41.4z M16.4,44.8c0.8-0.9,1.3-2,1.3-3.3   l0-7.1h6.6l0,10.4H16.4z M61.9,58.1c0,1.7-1.1,3-2.7,3l-26.5,0c0.8-0.9,1.3-2,1.3-3.3c0-0.1,0-0.2,0-0.3h27.9   C61.9,57.7,61.9,58,61.9,58.1z M54.8,56H33.3l-1,0.2l0.2,0.8c0.1,0.2,0.1,0.6,0.1,0.9c0,1.8-1.5,3.3-3.3,3.3   c-1.8,0-3.3-1.5-3.3-3.3l0-23.4h3.7l5.5-2.7l-5.5-2.7h-3.7l0-5.4c0-1.3-0.5-2.5-1.4-3.3l19,0V40h11.2V56z"/><path d="M46.4,22.9h15.8v-6.4H46.4V22.9z M47.9,18h12.9v3.5H47.9V18z"/><rect x="47.8" y="33.5" width="4.2" height="1.5"/><rect x="57.9" y="35.7" width="1.5" height="1.5"/><rect x="56.1" y="33.5" width="5.1" height="1.5"/><rect x="57.9" y="31.3" width="1.5" height="1.5"/><polygon points="50.6,25 49.1,25 49.1,26.3 47.8,26.3 47.8,27.8 49.1,27.8 49.1,29.2 50.6,29.2 50.6,27.8 52,27.8 52,26.3    50.6,26.3  "/><polygon points="57.7,29.1 58.7,28.1 59.6,29.1 60.7,28.1 59.7,27.1 60.7,26.1 59.6,25.1 58.7,26 57.7,25.1 56.7,26.1 57.6,27.1    56.7,28.1  "/></g><text x="0" y="80" fill="#000000" font-size="5px" font-weight="bold" font-family="'Helvetica Neue', Helvetica, Arial-Unicode, Arial, Sans-serif">Created by Creative Stall</text><text x="0" y="85" fill="#000000" font-size="5px" font-weight="bold" font-family="'Helvetica Neue', Helvetica, Arial-Unicode, Arial, Sans-serif">from the Noun Project</text></svg>