<svg xmlns="http://www.w3.org/2000/svg" xmlns:xlink="http://www.w3.org/1999/xlink" version="1.1" x="0px" y="0px" viewBox="0 0 96 120" enable-background="new 0 0 96 96" xml:space="preserve"><path fill="#000000" d="M91.672,37.907H72.105l-1.047,0.061L57.806,19.23l-4.681,6.084l9.031,12.584H35.777l18.52-24.236  c2.927-3.836,2.427-6.797,0.824-7.936c-2.047-1.453-4.445-0.908-7.371,2.92l-22.336,29.26H4.32c-2.34,0-4.246,1.9-4.246,4.229v3.428  c0,2.336,1.906,4.227,4.246,4.227h1.516l10.535,36.801c0.633,2.522,3.105,4.423,5.77,4.423h51.71c2.646,0,5.125-1.892,5.738-4.306  l10.564-36.919h1.521c2.34,0,4.25-1.891,4.25-4.227v-3.427C95.918,39.804,94.012,37.907,91.672,37.907z M73.535,84.629l-50.979,0.32  L10.911,44.293h8.742c0.016,0.266,0.047,0.549,0.094,0.82c0.34,1.936,1.414,3.617,3.145,4.804c3.406,2.156,7.746,1.354,10.168-1.813  l2.738-3.813h24.406l2.789,3.893c2.324,3.028,6.396,4.091,10.297,1.616c1.883-1.376,2.935-3.407,3.07-5.509h8.723L73.535,84.629z"/><text x="0" y="111" fill="#000000" font-size="5px" font-weight="bold" font-family="'Helvetica Neue', Helvetica, Arial-Unicode, Arial, Sans-serif">Created by thesaurustool.com</text><text x="0" y="116" fill="#000000" font-size="5px" font-weight="bold" font-family="'Helvetica Neue', Helvetica, Arial-Unicode, Arial, Sans-serif">from the Noun Project</text></svg>