<svg xmlns="http://www.w3.org/2000/svg" xmlns:xlink="http://www.w3.org/1999/xlink" version="1.0" x="0px" y="0px" viewBox="0 0 90 112.5" enable-background="new 0 0 90 90" xml:space="preserve"><path fill="#000000" d="M9.9,45c0,19.4,15.6,35,35,35s35-15.6,35-35s-15.6-35-35-35S9.9,25.6,9.9,45z M41.9,31.4l16.2,13.8  L41.9,58.9c-0.9,0.8-2.3,0.7-3.1-0.2c-0.8-0.9-0.7-2.3,0.2-3.1l12.3-10.4L39,34.8c-0.9-0.8-1-2.2-0.2-3.1  C39.6,30.8,41,30.7,41.9,31.4z"/><text x="0" y="105" fill="#000000" font-size="5px" font-weight="bold" font-family="'Helvetica Neue', Helvetica, Arial-Unicode, Arial, Sans-serif">Created by Antonio Petraglia</text><text x="0" y="110" fill="#000000" font-size="5px" font-weight="bold" font-family="'Helvetica Neue', Helvetica, Arial-Unicode, Arial, Sans-serif">from the Noun Project</text></svg>