<svg xmlns="http://www.w3.org/2000/svg" xmlns:xlink="http://www.w3.org/1999/xlink" version="1.0" x="0px" y="0px" viewBox="0 0 90 112.5" enable-background="new 0 0 90 90" xml:space="preserve"><path fill="#000000" d="M80,45c0-19.4-15.6-35-35-35s-35,15.6-35,35c0,19.4,15.6,35,35,35S80,64.4,80,45z M48,58.6L31.8,44.8  L48,31.1c0.9-0.8,2.3-0.7,3.1,0.2c0.8,0.9,0.7,2.3-0.2,3.1L38.6,44.8l12.3,10.4c0.9,0.8,1,2.2,0.2,3.1C50.3,59.2,48.9,59.3,48,58.6z  "/><text x="0" y="105" fill="#000000" font-size="5px" font-weight="bold" font-family="'Helvetica Neue', Helvetica, Arial-Unicode, Arial, Sans-serif">Created by Antonio Petraglia</text><text x="0" y="110" fill="#000000" font-size="5px" font-weight="bold" font-family="'Helvetica Neue', Helvetica, Arial-Unicode, Arial, Sans-serif">from the Noun Project</text></svg>