<svg xmlns:x="http://ns.adobe.com/Extensibility/1.0/" xmlns:i="http://ns.adobe.com/AdobeIllustrator/10.0/" xmlns:graph="http://ns.adobe.com/Graphs/1.0/" xmlns="http://www.w3.org/2000/svg" xmlns:xlink="http://www.w3.org/1999/xlink" version="1.1" x="0px" y="0px" viewBox="0 0 100 125" enable-background="new 0 0 100 100" xml:space="preserve"><metadata><sfw xmlns="http://ns.adobe.com/SaveForWeb/1.0/"><slices/><sliceSourceBounds y="-8142" x="4.746" width="90.545" height="16383" bottomLeftOrigin="true"/><optimizationSettings><targetSettings targetSettingsID="0" fileFormat="GIFFormat"><GIFFormat transparency="true" matteColor="#FFFFFF" interlaced="false" noMatteColor="false" webShiftPercent="0" includeCaption="false" reductionAlgorithm="selective" ditherAlgorithm="diffusion" ditherPercent="100" numColors="256" rolloverMasterPalette="false" autoReduce="false" lossy="0"><colorTable isExact="false"/><lockedColors/><colorShiftEntries/></GIFFormat></targetSettings></optimizationSettings></sfw></metadata><g><path d="M82.813,55.763c6.919-0.24,12.478-5.929,12.478-12.905c0-7.324-3.226-8.633-10-8.643v-0.001H85.22H42.292v11.5   c0,0.375,0.021,0.751,0.04,1.127c-4.478-0.459-9.055-0.249-13.445,0.64c-1.453,0.297-2.728,1.248-3.588,2.676   c-0.981,1.628-1.356,3.735-1.084,5.723c-0.519-0.18-1.051-0.298-1.589-0.298c-0.655,0-1.292,0.139-1.884,0.407   c-2.211,0.985-4.319,2.168-6.279,3.524c-0.142,0.102-0.277,0.211-0.408,0.325c-0.054,0.025-0.109,0.048-0.162,0.081   C7.998,63.693,3.313,78.21,5.15,81.566c0.414,0.756,1.115,1.165,1.9,1.165c0.333,0,0.681-0.073,1.029-0.226   c3.227-1.223,10.907-3.302,14.351-3.812c0.201,0.228,0.392,0.449,0.571,0.664c0.824,0.958,2.115,1.486,3.634,1.486   c0.2,0,0.401-0.01,0.624-0.03c1.016-0.107,2.03-0.195,3.05-0.271c0.263-0.021,0.495-0.062,0.714-0.112   c0.078,0.431,0.146,0.854,0.195,1.27c0.21,1.688,1.726,3.013,3.455,3.016h6.115c1.726-0.003,3.242-1.329,3.451-3.026   c0.049-0.413,0.116-0.832,0.193-1.259c0.221,0.05,0.456,0.093,0.722,0.113c1.014,0.075,2.027,0.163,3.065,0.273   c0.201,0.018,0.402,0.027,0.602,0.027c1.517,0,2.807-0.527,3.651-1.507c0.172-0.208,0.358-0.423,0.554-0.644   c3.443,0.511,11.123,2.59,14.35,3.812c0.348,0.152,0.696,0.226,1.029,0.226c0.784,0,1.485-0.409,1.899-1.165   c1.171-2.14-0.311-8.815-3.065-14.352h11.47c0.828,0,1.5-0.672,1.5-1.5s-0.672-1.5-1.5-1.5h-3.942   C78.173,62.195,80.964,59.269,82.813,55.763z M92.291,42.858c0,4.866-3.522,8.917-8.149,9.758c0.732-2.169,1.149-4.485,1.149-6.902   v-8.5C91.37,37.221,92.291,37.973,92.291,42.858z M7.672,79.461c-0.086-2.425,1.813-8.977,4.589-13.391   c0.216,0.891,0.604,1.712,1.147,2.367c2.648,3.388,4.819,5.748,6.606,7.651C16.246,76.863,10.75,78.372,7.672,79.461z    M30.346,77.514c-0.07,0.015-0.159,0.029-0.266,0.037c-1.045,0.077-2.092,0.169-3.116,0.277c-0.73,0.068-1.411-0.104-1.672-0.407   c-0.711-0.857-1.568-1.768-2.56-2.822c-1.839-1.955-4.129-4.389-6.986-8.041c-0.527-0.638-0.775-1.633-0.649-2.598   c0.066-0.501,0.297-1.428,1.087-1.99c1.792-1.24,3.736-2.33,5.787-3.244c0.212-0.097,0.426-0.144,0.654-0.144   c1.245,0,2.664,1.426,3.105,3.145c0.014,0.049,0.026,0.094,0.04,0.143c0.042,0.15,0.083,0.292,0.124,0.439   c0.149,0.529,0.294,1.043,0.436,1.541c0.055,0.19,0.108,0.378,0.162,0.564c0.133,0.464,0.262,0.913,0.389,1.351   c0.043,0.147,0.086,0.298,0.128,0.442c0.162,0.556,0.319,1.094,0.471,1.607c0.042,0.144,0.081,0.274,0.123,0.415   c0.104,0.349,0.205,0.692,0.304,1.023c0.085,0.286,0.167,0.561,0.249,0.833c0.032,0.108,0.064,0.215,0.096,0.321   c0.212,0.707,0.417,1.386,0.604,2.007c0.315,1.045,0.594,1.971,0.845,2.82C29.942,76.059,30.158,76.812,30.346,77.514z    M40.782,81.715l-3.055-0.002l-3.054,0.002c-0.268-0.001-0.459-0.226-0.479-0.376c-0.163-1.388-0.456-2.754-0.894-4.397   c-0.002-0.008-0.002-0.016-0.004-0.023c-0.046-0.171-0.099-0.357-0.147-0.534c-0.048-0.175-0.094-0.346-0.146-0.527   c-0.083-0.292-0.172-0.602-0.263-0.913c-0.034-0.118-0.066-0.23-0.102-0.353c-0.269-0.915-0.571-1.917-0.912-3.047   c-0.196-0.648-0.404-1.338-0.623-2.069c-0.019-0.062-0.038-0.124-0.056-0.187c-0.09-0.3-0.182-0.608-0.275-0.923   c-0.087-0.291-0.176-0.593-0.267-0.899c-0.049-0.167-0.097-0.328-0.148-0.499c-0.155-0.525-0.315-1.073-0.48-1.642   c-0.025-0.086-0.051-0.176-0.076-0.263c-0.154-0.531-0.312-1.079-0.475-1.649c-0.023-0.08-0.046-0.16-0.069-0.241   c-0.576-2.018-1.208-4.283-1.898-6.847c-0.451-1.543-0.251-3.356,0.51-4.62c0.299-0.496,0.823-1.122,1.617-1.284   c2.695-0.545,5.469-0.822,8.243-0.822s5.548,0.276,8.24,0.821c0.795,0.163,1.319,0.788,1.618,1.284   c0.762,1.264,0.962,3.077,0.502,4.651c-0.455,1.687-0.883,3.242-1.288,4.687c-0.046,0.166-0.091,0.322-0.137,0.485   c-0.146,0.521-0.29,1.029-0.43,1.52c-0.048,0.169-0.096,0.336-0.144,0.502c-0.149,0.52-0.294,1.025-0.436,1.512   c-0.024,0.083-0.049,0.169-0.072,0.251c-0.341,1.173-0.659,2.249-0.956,3.243c-0.036,0.119-0.07,0.235-0.105,0.352   c-0.105,0.354-0.208,0.695-0.308,1.026c-0.048,0.159-0.097,0.321-0.143,0.476c-0.051,0.169-0.099,0.328-0.148,0.491   c-0.064,0.215-0.13,0.433-0.193,0.64c-0.151,0.499-0.292,0.969-0.428,1.423c-0.448,1.49-0.817,2.748-1.119,3.871   c-0.009,0.034-0.02,0.071-0.029,0.105c0,0.001,0,0.003-0.001,0.004c-0.438,1.642-0.729,3.005-0.892,4.388   C41.24,81.49,41.049,81.714,40.782,81.715z M48.821,77.844c-0.109,0-0.22-0.005-0.308-0.013c-1.048-0.111-2.093-0.203-3.132-0.279   c-0.112-0.009-0.203-0.023-0.275-0.04c0.03-0.112,0.062-0.229,0.094-0.344c0.062-0.225,0.123-0.447,0.19-0.685   c0.047-0.165,0.098-0.34,0.148-0.511c0.068-0.236,0.135-0.467,0.208-0.717c0.072-0.245,0.151-0.508,0.229-0.769   c0.058-0.192,0.111-0.374,0.171-0.575c0.143-0.475,0.292-0.972,0.452-1.5c0.074-0.244,0.154-0.51,0.231-0.767   c0.035-0.115,0.068-0.226,0.104-0.343c0.054-0.18,0.109-0.362,0.165-0.548c0.09-0.301,0.183-0.608,0.277-0.926   c0.048-0.159,0.095-0.317,0.144-0.481c0.123-0.41,0.249-0.834,0.378-1.272c0.024-0.082,0.047-0.158,0.071-0.241   c0.151-0.512,0.307-1.045,0.468-1.598c0.055-0.19,0.113-0.391,0.169-0.586c0.105-0.362,0.211-0.731,0.321-1.112   c0.078-0.273,0.157-0.55,0.238-0.832c0.09-0.318,0.183-0.646,0.276-0.978c0.095-0.335,0.188-0.665,0.286-1.014   c0.002-0.006,0.003-0.012,0.005-0.019c0.435-1.688,1.853-3.114,3.098-3.114c0.228,0,0.442,0.047,0.664,0.147   c2.037,0.908,3.981,1.998,5.762,3.229c0.805,0.572,1.035,1.5,1.102,2.001c0.126,0.966-0.122,1.961-0.676,2.63   c-2.831,3.621-5.12,6.056-6.96,8.011c-0.99,1.054-1.846,1.964-2.54,2.799C49.941,77.678,49.433,77.844,48.821,77.844z    M67.781,79.461c-3.078-1.089-8.573-2.598-12.342-3.372c1.786-1.904,3.954-4.261,6.578-7.618c0.375-0.452,0.674-0.977,0.899-1.542   c0.246,0.179,0.547,0.286,0.874,0.286h0.078C66.271,71.548,67.86,77.238,67.781,79.461z M65.47,64.116   c-1.188-1.806-2.514-3.304-3.908-4.196c-0.054-0.034-0.11-0.058-0.167-0.085c-0.134-0.116-0.271-0.229-0.417-0.332   c-1.949-1.348-4.057-2.53-6.254-3.51c-0.602-0.272-1.239-0.411-1.895-0.411c-0.539,0-1.072,0.118-1.592,0.298   c0.272-1.999-0.104-4.1-1.083-5.725c-0.861-1.428-2.134-2.378-3.589-2.675c-0.398-0.081-0.801-0.142-1.202-0.211   c-0.043-0.517-0.071-1.036-0.071-1.555v-8.5h37l-0.001,8.5C82.29,55.353,74.966,63.264,65.47,64.116z"/><path d="M54.756,29.282c0.292,0.288,0.673,0.432,1.053,0.432c0.388,0,0.774-0.149,1.067-0.447c3.727-3.776,3.389-5.211,3.277-5.685   c-0.246-1.04-1.146-1.683-2.018-2.305c-0.204-0.146-0.503-0.358-0.707-0.529c0.344-0.647,1.329-1.902,2.314-2.919   c0.576-0.595,0.562-1.544-0.033-2.121c-0.596-0.576-1.544-0.561-2.121,0.033c-3.661,3.776-3.324,5.204-3.214,5.675   c0.246,1.04,1.146,1.683,2.018,2.305c0.203,0.144,0.498,0.355,0.702,0.525c-0.354,0.649-1.354,1.901-2.354,2.915   C54.159,27.751,54.166,28.701,54.756,29.282z"/><path d="M62.256,29.282c0.292,0.288,0.673,0.432,1.053,0.432c0.388,0,0.774-0.149,1.067-0.446c3.729-3.778,3.388-5.214,3.276-5.684   c-0.245-1.041-1.146-1.684-2.017-2.306c-0.204-0.146-0.502-0.358-0.706-0.53c0.343-0.646,1.328-1.902,2.313-2.92   c0.576-0.595,0.562-1.544-0.033-2.121c-0.596-0.576-1.545-0.562-2.121,0.033c-3.66,3.776-3.323,5.204-3.213,5.673   c0.245,1.041,1.146,1.684,2.017,2.306c0.202,0.145,0.498,0.355,0.702,0.526c-0.353,0.648-1.354,1.9-2.354,2.915   C61.659,27.751,61.666,28.701,62.256,29.282z"/><path d="M69.756,29.282c0.292,0.288,0.673,0.432,1.053,0.432c0.388,0,0.774-0.149,1.067-0.447c3.727-3.777,3.388-5.212,3.276-5.685   c-0.246-1.04-1.146-1.683-2.018-2.304c-0.203-0.146-0.502-0.358-0.706-0.53c0.343-0.647,1.328-1.902,2.313-2.92   c0.576-0.595,0.562-1.544-0.033-2.121c-0.596-0.576-1.545-0.562-2.121,0.033c-3.66,3.776-3.323,5.204-3.213,5.674   c0.246,1.04,1.146,1.683,2.018,2.304c0.202,0.145,0.497,0.355,0.701,0.526c-0.353,0.648-1.354,1.9-2.354,2.915   C69.159,27.751,69.166,28.701,69.756,29.282z"/></g><text x="0" y="115" fill="#000000" font-size="5px" font-weight="bold" font-family="'Helvetica Neue', Helvetica, Arial-Unicode, Arial, Sans-serif">Created by Ralf Schmitzer</text><text x="0" y="120" fill="#000000" font-size="5px" font-weight="bold" font-family="'Helvetica Neue', Helvetica, Arial-Unicode, Arial, Sans-serif">from the Noun Project</text></svg>
