<svg xmlns="http://www.w3.org/2000/svg" xmlns:xlink="http://www.w3.org/1999/xlink" version="1.1" x="0px" y="0px" viewBox="0 0 100 125" enable-background="new 0 0 100 100" xml:space="preserve"><path fill="#000000" d="M48.892,80.11c0.806,0,1.459-0.653,1.459-1.459s-0.653-1.46-1.459-1.46c-1.482,0-2.687-1.206-2.687-2.688  V73.13c0-0.806-0.653-1.459-1.459-1.459s-1.459,0.653-1.459,1.459v1.373C43.286,77.595,45.801,80.11,48.892,80.11z"/><path d="M81.362,81.6h-8.18l1.458-22.266h0.988c2.527,0,4.583-2.057,4.583-4.585s-2.058-4.585-4.587-4.585h-0.384l0.723-11.028  c7.467-3.35,12.098-8.233,12.098-13.759c0-3.933-2.35-7.583-6.529-10.593c0.029-0.059,0.07-0.109,0.092-0.173  c0.978-2.83-0.529-5.93-3.361-6.91l-6.947-2.397c-2.689-0.93-5.571,0.343-6.719,2.9C60.34,7.387,55.855,6.95,51.217,6.95  c-4.64,0-9.124,0.437-13.381,1.254c-1.149-2.56-4.032-3.829-6.721-2.901l-6.947,2.398c-1.371,0.474-2.476,1.454-3.111,2.758  c-0.636,1.306-0.725,2.78-0.25,4.152c0.022,0.063,0.062,0.112,0.092,0.171c-4.182,3.01-6.531,6.66-6.531,10.594  c0,5.526,4.632,10.41,12.101,13.76l0.715,10.917c-0.511-0.201-1.057-0.315-1.623-0.315c-1.226,0-2.377,0.477-3.244,1.345  l-9.039,9.038c-1.786,1.786-1.788,4.695-0.001,6.486c0.866,0.866,2.018,1.343,3.242,1.343c1.226,0,2.377-0.478,3.243-1.344  l7.982-7.982L29.25,81.6h-8.18c-3.695,0-6.701,3.006-6.701,6.7c0,3.695,3.006,6.7,6.701,6.7h60.292c3.693,0,6.699-3.005,6.699-6.7  C88.062,84.605,85.056,81.6,81.362,81.6z M27.209,54.513c-0.017,0.143-0.045,0.285-0.098,0.42c-0.081,0.207-0.204,0.401-0.371,0.568  l-9.042,9.041c-0.63,0.631-1.73,0.628-2.356,0.003c-0.65-0.652-0.65-1.711,0-2.361l9.04-9.038c0.235-0.234,0.527-0.391,0.845-0.455  c0.109-0.021,0.221-0.034,0.335-0.034c0.445,0,0.864,0.174,1.178,0.488c0.108,0.108,0.191,0.229,0.263,0.356  c0.018,0.031,0.034,0.062,0.05,0.095c0.062,0.127,0.113,0.26,0.14,0.396c0,0.001,0.001,0.003,0.001,0.004  c0.028,0.143,0.032,0.286,0.023,0.431C27.215,54.455,27.212,54.484,27.209,54.513z M60.625,81.6c1.232-1.208,2.14-2.741,2.595-4.459  h4.058c1.284,0,2.448-0.484,3.354-1.262L70.257,81.6H60.625z M65.851,69.78h1.427c1.234,0,2.24,0.992,2.263,2.221  c-0.022,1.229-1.028,2.221-2.263,2.221h-3.72v-4.437C64.581,69.782,65.792,69.78,65.851,69.78z M60.639,74.64  c0,3.77-3.065,6.835-6.834,6.835H49.14c-3.77,0-6.836-3.065-6.836-6.835V69.78h18.334V74.64z M75.625,53.083  c0.92,0,1.668,0.747,1.668,1.666s-0.746,1.666-1.664,1.666h-0.797h-2.925H62.84c-0.445,0-0.863-0.173-1.178-0.488  c-0.258-0.257-0.414-0.585-0.465-0.938c0.013-0.079,0.024-0.157,0.024-0.24c0-0.08-0.012-0.156-0.024-0.233  c0.117-0.808,0.807-1.433,1.645-1.433h9.282h2.927H75.625z M72.315,50.164h-9.474c-2.013,0-3.709,1.315-4.325,3.126h-0.996v-2.456  c3.78-1.044,6.653-4.284,7.151-8.26c2.978-0.568,5.757-1.32,8.288-2.232L72.315,50.164z M47.824,53.29v-2.092h6.778v2.092h-3.39  H47.824z M54.914,48.278h-7.396c-3.219-0.004-5.923-2.216-6.696-5.196c3.287,0.467,6.77,0.721,10.396,0.721  c3.624,0,7.106-0.254,10.393-0.721C60.836,46.063,58.132,48.274,54.914,48.278z M70.362,8.062l6.947,2.397  c1.139,0.395,1.813,1.532,1.674,2.683c-3.11-1.76-6.953-3.219-11.377-4.297C68.254,8.052,69.335,7.708,70.362,8.062z M23.681,11.737  c0.294-0.604,0.806-1.058,1.441-1.277l6.946-2.398c1.027-0.356,2.109-0.01,2.757,0.783c-4.424,1.078-8.267,2.536-11.377,4.296  C23.389,12.665,23.466,12.18,23.681,11.737z M17.287,25.376c0-5.923,7.693-11.428,19.599-14.025  c4.508-0.983,9.33-1.482,14.331-1.482c5,0,9.821,0.499,14.33,1.482c0,0,0,0,0.001,0c11.904,2.599,19.596,8.104,19.596,14.025  c0,8.407-15.536,15.508-33.927,15.508C32.825,40.885,17.287,33.783,17.287,25.376z M32.62,41.356v3.939l-2.649,2.65l-0.498-7.604  C30.482,40.707,31.533,41.044,32.62,41.356z M30.224,51.819l4.887-4.887c0.273-0.274,0.427-0.645,0.427-1.032v-3.792  c0.726,0.167,1.464,0.321,2.215,0.464c0.497,3.976,3.371,7.215,7.152,8.261v3.915c0,0.806,0.653,1.459,1.459,1.459h4.848h4.849  h2.451c0.224,0.662,0.579,1.275,1.087,1.783c0.866,0.865,2.018,1.343,3.243,1.343h8.874l-0.605,9.257  c-0.949-1.053-2.307-1.729-3.833-1.729h-1.427c-0.031,0-2.748,0.004-3.609,0.015c-0.048-0.005-0.095-0.015-0.143-0.015H40.845  c-0.806,0-1.459,0.653-1.459,1.459v6.319c0,2.725,1.125,5.189,2.934,6.96H32.174L30.224,51.819z M81.362,92.082H21.07  c-2.086,0-3.783-1.696-3.783-3.782c0-2.085,1.697-3.781,3.783-3.781h60.292c2.085,0,3.781,1.696,3.781,3.781  C85.144,90.386,83.447,92.082,81.362,92.082z"/><path fill="#000000" d="M60.582,25.376c0-5.165-4.201-9.366-9.365-9.366c-5.166,0-9.369,4.201-9.369,9.366s4.203,9.367,9.369,9.367  C56.381,34.743,60.582,30.541,60.582,25.376z M44.767,25.376c0-3.053,2.136-5.611,4.991-6.275v6.275  c0,0.806,0.653,1.459,1.459,1.459c0.806,0,1.459-0.653,1.459-1.459v-6.275c2.854,0.664,4.988,3.222,4.988,6.275  c0,3.556-2.893,6.448-6.447,6.448C47.66,31.825,44.767,28.932,44.767,25.376z"/><path fill="#000000" d="M68.708,29.758c2.417,0,4.384-1.966,4.384-4.382c0-2.416-1.967-4.381-4.384-4.381  c-2.416,0-4.381,1.965-4.381,4.381C64.327,27.792,66.292,29.758,68.708,29.758z M68.708,23.914c0.808,0,1.465,0.656,1.465,1.462  c0,0.807-0.657,1.464-1.465,1.464c-0.807,0-1.463-0.657-1.463-1.464C67.245,24.569,67.901,23.914,68.708,23.914z"/><path fill="#000000" d="M33.722,20.995c-2.416,0-4.381,1.965-4.381,4.381c0,2.417,1.966,4.382,4.381,4.382  c2.417,0,4.383-1.966,4.383-4.382C38.105,22.96,36.139,20.995,33.722,20.995z M33.722,26.84c-0.807,0-1.463-0.657-1.463-1.464  c0-0.807,0.656-1.462,1.463-1.462c0.808,0,1.465,0.656,1.465,1.462C35.187,26.183,34.53,26.84,33.722,26.84z"/><circle fill="#000000" cx="23.876" cy="25.377" r="1.535"/><circle fill="#000000" cx="51.215" cy="88.3" r="1.535"/><circle fill="#000000" cx="78.929" cy="25.377" r="1.535"/><text x="0" y="115" fill="#000000" font-size="5px" font-weight="bold" font-family="'Helvetica Neue', Helvetica, Arial-Unicode, Arial, Sans-serif">Created by Marianna Rossi</text><text x="0" y="120" fill="#000000" font-size="5px" font-weight="bold" font-family="'Helvetica Neue', Helvetica, Arial-Unicode, Arial, Sans-serif">from the Noun Project</text></svg>