<svg xmlns="http://www.w3.org/2000/svg" xmlns:xlink="http://www.w3.org/1999/xlink" version="1.1" x="0px" y="0px" viewBox="0 0 65 81.25" enable-background="new 0 0 65 65" xml:space="preserve"><g><path d="M65.3,5.3c0-2-1.6-3.6-3.6-3.6H3.4c-2,0-3.7,1.6-3.7,3.6v46.5h41v1.4c-1.6,1-2.5,2.8-2.5,4.6c0,2.2,1.3,4.2,3.3,5.1   l1.1,0.5v-3.4l1.2-1l1.2,1v3.4l1.1-0.5c1.9-0.9,3.2-2.9,3.2-5c0-1.9-1-3.6-2.5-4.6v-1.4h5.8l0,7.9c0,0.9,0.4,1.8,1,2.5   c0.7,0.7,1.5,1,2.5,1h0.7c1.9,0,3.5-1.6,3.5-3.5l0-7.9h5V5.3z M3.4,3.1h58.2c1.2,0,2.1,1,2.1,2.1v4.1H1.3V5.3   C1.3,4.1,2.2,3.1,3.4,3.1z M47.8,57.8c0,1.1-0.5,2.2-1.2,2.9v-1.5l-2.7-2.3l-2.7,2.3v1.6c-0.8-0.8-1.4-1.8-1.4-3   c0-1.5,0.8-2.8,2.1-3.5l0.4-0.2V34.4l-0.4-0.2c-1.3-0.7-2.1-2.1-2.1-3.5c0-1.2,0.5-2.3,1.4-3v1.6l2.7,2.3l2.7-2.3v-1.5   c0.8,0.7,1.2,1.8,1.2,2.9c0,1.5-0.8,2.8-2.1,3.5l-0.4,0.2v19.6l0.4,0.2C47,55,47.8,56.4,47.8,57.8z M58.7,59.7c0,1.1-0.9,2-2,2   h-0.7c-0.5,0-1-0.2-1.4-0.6c-0.4-0.4-0.6-0.9-0.6-1.4l0-13l4.6,0L58.7,59.7z M60.2,50.3l0-3.6h0.7v-1.5h-3.8V32.7l1.9-1.3l-0.7-6.1   h-4l-0.7,6.1l1.9,1.3v12.4H54h-1.4l0,0h-0.7v1.5h0.7l0,3.6h-5.8v-15c1.6-1,2.5-2.8,2.5-4.6c0-2.1-1.2-4.1-3.2-5L45,25.2v3.4l-1.2,1   l-1.2-1v-3.4l-1.1,0.5c-2,0.9-3.3,2.9-3.3,5.1c0,1.9,1,3.6,2.5,4.6v15H1.3V10.8h62.5v39.4H60.2z M56.4,31.4l-1.1-0.7l0.4-3.9H57   l0.4,3.9L56.4,31.4z"/><rect x="53.1" y="5.5" width="1.5" height="1.5"/><rect x="49.3" y="5.5" width="1.5" height="1.5"/><rect x="56.9" y="5.5" width="1.5" height="1.5"/><rect x="6.1" y="5.5" width="38.5" height="1.5"/><path d="M30.2,15.5h-5.7v2.1h-20v1.5h20v2.1h5.7v-2.1h2.9v-1.5h-2.9V15.5z M28.7,19.6H26V17h2.7V19.6z"/><path d="M16,23.6h-5.7v2.1H4.5v1.5h5.7v2.1H16v-2.1h17.2v-1.5H16V23.6z M14.5,27.8h-2.7v-2.7h2.7V27.8z"/><path d="M25.9,31.8h-5.7v2.1H4.5v1.5h15.7v2.1h5.7v-2.1h7.3v-1.5h-7.3V31.8z M24.4,36h-2.7v-2.7h2.7V36z"/><path d="M22.1,39.9h-5.7V42H4.5v1.5h11.8v2.1h5.7v-2.1h11.1V42H22.1V39.9z M20.6,44.1h-2.7v-2.7h2.7V44.1z"/></g><text x="0" y="80" fill="#000000" font-size="5px" font-weight="bold" font-family="'Helvetica Neue', Helvetica, Arial-Unicode, Arial, Sans-serif">Created by Creative Stall</text><text x="0" y="85" fill="#000000" font-size="5px" font-weight="bold" font-family="'Helvetica Neue', Helvetica, Arial-Unicode, Arial, Sans-serif">from the Noun Project</text></svg>