<svg id="Layer_1" data-name="Layer 1" xmlns="http://www.w3.org/2000/svg" viewBox="0 0 600 600"><defs><style>.cls-1{fill:none;stroke:#000;stroke-miterlimit:10;stroke-width:40px;}</style></defs><title>NetWorthTrackingYingYangIcon</title><path class="cls-1" d="M287.92,296.77q3.78-.22,7.62-.22t7.62.22A133.23,133.23,0,1,1,274.23,561.3"/><rect x="228.92" y="410.99" width="133.22" height="37.58" rx="18.79" ry="18.79"/><path class="cls-1" d="M311.43,31.47a133.23,133.23,0,1,0-23.51,265.3h0q3.77.21,7.58.21c2.54,0,5.07-.07,7.57-.21h.05"/><path d="M362.15,163.75h0a18.79,18.79,0,0,1-18.79,18.79h-29v29a18.79,18.79,0,0,1-18.79,18.79h0a18.79,18.79,0,0,1-18.79-18.79v-29h-29a18.79,18.79,0,0,1-18.79-18.79h0A18.79,18.79,0,0,1,247.71,145h29v-29a18.79,18.79,0,0,1,18.79-18.79h0a18.79,18.79,0,0,1,18.79,18.79v29h29A18.79,18.79,0,0,1,362.15,163.75Z"/><ellipse class="cls-1" cx="295.54" cy="296.57" rx="266.45" ry="265.57"/></svg>