<svg id="Layer_1" data-name="Layer 1" xmlns="http://www.w3.org/2000/svg" viewBox="0 0 600 600"><defs><style>.cls-1{fill:none;stroke:#000;stroke-miterlimit:10;stroke-width:40px;}</style></defs><title>NetWorthTracking-n</title><circle class="cls-1" cx="300.1" cy="299.5" r="209.5"/><path d="M366.87,215.69q18.58,15.36,18.58,51v106.8a20.62,20.62,0,0,1-20.62,20.62h-9.44a20.62,20.62,0,0,1-20.62-20.62V279q0-14.93-4-22.92-7.24-14.58-27.57-14.58-25,0-34.3,21.35-4.82,11.29-4.82,28.82v82.41a20,20,0,0,1-20,20h-9.44a20,20,0,0,1-20-20V230.84a25.65,25.65,0,0,1,25.65-25.65h10.16a12.1,12.1,0,0,1,12.1,12.1h0a5.09,5.09,0,0,0,9,3.28,58.16,58.16,0,0,1,9-8.78q15.21-11.46,38.55-11.46Q348.28,200.33,366.87,215.69Z"/></svg>