<svg xmlns="http://www.w3.org/2000/svg" viewBox="0 0 100 100"><title>NetWorthAtom</title><path d="M97.5,25.09a11.25,11.25,0,0,0-21.14-5.34,34,34,0,0,0-7.62,0c-4.21-8.3-10.16-13.4-16.86-13.4S39.25,11.42,35,19.7c-9.61-1-16.79,1.46-20.28,6.89-3.85,6-2.47,14.65,3.76,23.89a36.19,36.19,0,0,0-5.2,11A12,12,0,1,0,24,80.63a27.92,27.92,0,0,0,7.07.84A38.23,38.23,0,0,0,35,81.26c4.2,8.3,10.16,13.4,16.85,13.4s12.64-5.08,16.85-13.37a39.42,39.42,0,0,0,4,.2c7.65,0,13.36-2.44,16.34-7.08,3.85-6,2.47-14.67-3.79-23.93,3.62-5.38,5.63-10.61,5.86-15.26A11.24,11.24,0,0,0,97.5,25.09ZM86.26,16.85A8.24,8.24,0,1,1,78,25.09,8.25,8.25,0,0,1,86.26,16.85ZM51.88,9.34c8.56,0,15.89,10.77,18.87,26-2-1.56-4.09-3-6.21-4.41C55.87,25.33,46.6,21.55,38.2,20.13,41.81,13.43,46.61,9.34,51.88,9.34ZM17.29,28.22C20,24,25.9,22,33.7,22.6c-3.22,7.55-5.12,17.23-5.12,27.9q0,3.93.34,7.65a57.61,57.61,0,0,1-7.33-8.51C15.67,41.24,14.07,33.23,17.29,28.22ZM14.5,82.38a9,9,0,1,1,9-9A9,9,0,0,1,14.5,82.38Zm11.09-4.47a11.81,11.81,0,0,0,.9-4.53A12,12,0,0,0,16.42,61.54a33.18,33.18,0,0,1,4-8.44,64.09,64.09,0,0,0,9,9.59,63.9,63.9,0,0,0,4.23,15.68A28,28,0,0,1,25.59,77.91Zm6-27.41c0-10.59,2-20.25,5.23-27.55,8.22,1.21,17.45,4.91,26.1,10.48a83,83,0,0,1,8.58,6.35,80.55,80.55,0,0,1,.7,10.72,80.51,80.51,0,0,1-.7,10.71,75,75,0,0,1-8.6,6.36,77.55,77.55,0,0,1-11.6,6.18A59.76,59.76,0,0,1,36.8,78C33.56,70.74,31.58,61.08,31.58,50.5Zm20.3,41.16c-5.28,0-10.09-4.11-13.7-10.82a63.49,63.49,0,0,0,14.29-4.33,82,82,0,0,0,12-6.41c2.18-1.39,4.26-2.87,6.24-4.42C67.77,80.89,60.44,91.66,51.88,91.66ZM86.53,72.78C83.85,77,77.92,79,70.08,78.39a63.38,63.38,0,0,0,4.23-15.67,68,68,0,0,0,9.08-9.63C88.35,60.85,89.54,68.12,86.53,72.78Zm-11.68-30a59.44,59.44,0,0,1,6.74,7.67,60.74,60.74,0,0,1-6.74,7.66c.23-2.47.34-5,.34-7.64S75.07,45.3,74.85,42.81Zm8.53,5a66.79,66.79,0,0,0-9.07-9.61,63.53,63.53,0,0,0-4.23-15.62,31,31,0,0,1,5.2,0A10.86,10.86,0,0,0,75,25.09a11.24,11.24,0,0,0,13,11.1A29.07,29.07,0,0,1,83.38,47.86Z"/><path d="M51.88,63.41A12.91,12.91,0,1,1,64.8,50.5,12.93,12.93,0,0,1,51.88,63.41Zm0-22.82A9.91,9.91,0,1,0,61.8,50.5,9.92,9.92,0,0,0,51.88,40.59Z"/><path d="M55.52,46a3.42,3.42,0,0,1,1,2.77v5.81a1.14,1.14,0,0,1-1.13,1.13H54.9a1.14,1.14,0,0,1-1.13-1.13V49.4a2.92,2.92,0,0,0-.22-1.24A1.51,1.51,0,0,0,52,47.35a1.82,1.82,0,0,0-1.86,1.16,3.78,3.78,0,0,0-.27,1.56v4.5a1.11,1.11,0,0,1-1.1,1.1H48.3a1.11,1.11,0,0,1-1.1-1.1V46.76a1.39,1.39,0,0,1,1.4-1.4h.57a.67.67,0,0,1,.67.67h0a.28.28,0,0,0,.48.19,4.11,4.11,0,0,1,.48-.48,3.53,3.53,0,0,1,2.1-.62A3.9,3.9,0,0,1,55.52,46Z"/><path d="M18.27,74.89H10.73a1.49,1.49,0,0,1-1.48-1.48h0a1.49,1.49,0,0,1,1.48-1.48h7.54a1.49,1.49,0,0,1,1.48,1.48h0A1.46,1.46,0,0,1,18.27,74.89Z"/><path d="M91.48,25.09h0A1.49,1.49,0,0,1,90,26.57H87.71v2.29a1.49,1.49,0,0,1-1.48,1.48h0a1.49,1.49,0,0,1-1.48-1.48V26.57H82.46A1.49,1.49,0,0,1,81,25.09h0a1.49,1.49,0,0,1,1.48-1.48h2.29V21.32a1.49,1.49,0,0,1,1.48-1.48h0a1.49,1.49,0,0,1,1.48,1.48v2.29H90A1.44,1.44,0,0,1,91.48,25.09Z"/></svg>