<svg xmlns="http://www.w3.org/2000/svg" data-name="Layer 1" viewBox="0 0 5 6.25" x="0px" y="0px"><title>coffee_machine</title><path d="M1.215,1.72088a.14352.14352,0,1,0-.14352-.14352A.14368.14368,0,0,0,1.215,1.72088ZM1.1954,1.47674v.03538a.0205.0205,0,1,0,.041,0v-.035a.10253.10253,0,1,1-.041-.00038Z"/><path d="M1.584,1.72088a.14352.14352,0,1,0-.14352-.14352A.14368.14368,0,0,0,1.584,1.72088Zm-.01957-.24414v.03538a.0205.0205,0,1,0,.041,0v-.035a.10253.10253,0,1,1-.041-.00038Z"/><path d="M1.95308,1.72088a.14352.14352,0,1,0-.14352-.14352A.14368.14368,0,0,0,1.95308,1.72088Zm-.01957-.24414v.03538a.0205.0205,0,1,0,.041,0v-.035a.10253.10253,0,1,1-.041-.00038Z"/><path d="M2.79929,1.72088a.14352.14352,0,1,0-.14352-.14352A.14369.14369,0,0,0,2.79929,1.72088Zm0-.246a.10252.10252,0,1,1-.10251.10252A.10263.10263,0,0,1,2.79929,1.47484Z"/><path d="M3.16835,1.72088a.14352.14352,0,1,0-.14352-.14352A.14369.14369,0,0,0,3.16835,1.72088Zm0-.246a.10252.10252,0,1,1-.10251.10252A.10263.10263,0,0,1,3.16835,1.47484Z"/><path d="M3.5374,1.72088a.14352.14352,0,1,0-.14352-.14352A.14368.14368,0,0,0,3.5374,1.72088Zm0-.246a.10252.10252,0,1,1-.10252.10252A.10263.10263,0,0,1,3.5374,1.47484Z"/><path d="M1.83566,1.95573A.05964.05964,0,1,0,1.776,1.89609.05971.05971,0,0,0,1.83566,1.95573Zm0-.07828a.01864.01864,0,1,1-.01864.01864A.01866.01866,0,0,1,1.83566,1.87745Z"/><path d="M2.03323,1.83644a.05964.05964,0,1,0,.05965.05964A.05971.05971,0,0,0,2.03323,1.83644Zm0,.07828a.01864.01864,0,1,1,.01864-.01864A.01866.01866,0,0,1,2.03323,1.91472Z"/><path d="M2.78625,1.83644a.05964.05964,0,1,0,.05964.05964A.05971.05971,0,0,0,2.78625,1.83644Zm0,.07828a.01864.01864,0,1,1,.01864-.01864A.01866.01866,0,0,1,2.78625,1.91472Z"/><path d="M4.01083,2.54659a.05964.05964,0,1,0-.05964-.05964A.05971.05971,0,0,0,4.01083,2.54659Zm0-.07828a.01864.01864,0,1,1-.01864.01864A.01866.01866,0,0,1,4.01083,2.46831Z"/><path d="M2.92417,1.89609a.05965.05965,0,1,0,.05964-.05964A.05971.05971,0,0,0,2.92417,1.89609Zm.05964-.01864a.01864.01864,0,1,1-.01864.01864A.01866.01866,0,0,1,2.98382,1.87745Z"/><path d="M2.79184,3.01629a.25722.25722,0,1,0-.25722-.25722A.25751.25751,0,0,0,2.79184,3.01629Zm0-.47343a.21621.21621,0,1,1-.21621.21621A.21646.21646,0,0,1,2.79184,2.54286Z"/><path d="M2.79184,2.81872a.05918.05918,0,0,0,.02506-.00559l.05923.05923a.0205.0205,0,0,0,.029-.029l-.05923-.05923a.0596.0596,0,1,0-.05405.03459Z"/><path d="M2.40881,2.05825A.25722.25722,0,1,0,2.15159,1.801.25751.25751,0,0,0,2.40881,2.05825Zm-.21521-.23672H2.228a.0205.0205,0,0,0,0-.041H2.19359a.21522.21522,0,0,1,.0481-.11652l.02554.02554a.0205.0205,0,1,0,.029-.029l-.02564-.02564a.21524.21524,0,0,1,.11771-.0491V1.624a.0205.0205,0,0,0,.041,0V1.58581a.21524.21524,0,0,1,.11854.04981l-.02756.02756a.0205.0205,0,0,0,.029.029l.02731-.02731a.21514.21514,0,0,1,.0477.11938H2.58588a.0205.0205,0,1,0,0,.041h.03775a.2153.2153,0,0,1-.05115.11681l-.02583-.02583a.0205.0205,0,0,0-.029.029l.02523.02523a.21507.21507,0,0,1-.1173.04607v-.0347a.0205.0205,0,0,0-.041,0v.034a.21526.21526,0,0,1-.11481-.04942L2.2936,1.9426a.02051.02051,0,0,0-.029-.029L2.241,1.93719A.21518.21518,0,0,1,2.19359,1.82153Z"/><path d="M2.40881,1.86067a.05951.05951,0,0,0,.05405-.0847l.0364-.0364a.0205.0205,0,1,0-.029-.029l-.0364.0364a.05962.05962,0,1,0-.02506.1137Z"/><path d="M.79746,4.08717V4.472a.0205.0205,0,0,0,.0205.0205h.21249a.02052.02052,0,0,0,.0145-.006l.10956-.10956H3.665l.10956.10956a.0205.0205,0,0,0,.0145.006h.21249A.0205.0205,0,0,0,4.022,4.472V4.05449A.0205.0205,0,0,0,4.016,4.04l-.18783-.18783-.00387-.0057-.0138-1.10423a.3135.3135,0,0,1,.06917.10571.0205.0205,0,0,0,.01931.01365l.00324-.00026L3.919,2.85867l.14748.44762a.109.109,0,0,0,.044.065.05959.05959,0,0,0,.02941.00768.0694.0694,0,0,0,.02176-.00364.06421.06421,0,0,0,.03913-.0335.11238.11238,0,0,0-.00044-.07922l-.14047-.42634.00638-.001a.0205.0205,0,0,0,.01593-.02758.54.54,0,0,0-.06056-.11l.09521-.13026a.13047.13047,0,1,0-.20826-.15724l-.08808.117-.01269-.0099-.00565-.44556.12832-.13152a.0205.0205,0,0,0,.00572-.01644l-.01551-.14885H4.009a.0205.0205,0,0,0,.02033-.01786L4.074,1.41254A.0205.0205,0,0,0,4.0537,1.3894H3.8805L3.86161,1.208a.0205.0205,0,0,0-.02039-.01838H2.261l.0008-.00555a.14033.14033,0,0,1,.02178-.0732.38592.38592,0,0,1,.03462-.03387A.36067.36067,0,0,0,2.448.896,1.72972,1.72972,0,0,0,2.44811.64215.02054.02054,0,0,0,2.43144.62341l-.00007,0A1.83581,1.83581,0,0,0,1.72126.50749h-.006a1.70938,1.70938,0,0,0-.69543.11814L1.01238.63036l-.003.00376L1.00935.63424,1.00856.63563l-.00048.001-.0003.00068L1.00726.63877,1.00712.63918,1.00675.64067,1.00662.64122,1.00643.6425l-.0001.00087,0,.00037A1.74059,1.74059,0,0,0,1.007.89752a.3606.3606,0,0,0,.12935.18078.38507.38507,0,0,1,.03446.03379.14113.14113,0,0,1,.0218.07316l.0005.00442H.93725a.0205.0205,0,0,0-.02044.01889L.8609,1.91684a.0205.0205,0,0,0,.00457.0146L.995,2.0898v.2279l.0001.002-.08.06981a.0205.0205,0,0,0,.01348.036H.995v1.423L.80346,4.04a.02051.02051,0,0,0-.006.0145v.0046a.02043.02043,0,0,0,0,.02809Zm3.00006.36433L3.688,4.34194l-.00145-.00119V4.21851a.0205.0205,0,1,0-.041,0v.11743H1.15906V4.21851a.0205.0205,0,1,0-.041,0V4.3554l-.0961.0961H.83847V4.09363H3.981V4.4515Zm.01537-1.76081-.01865-.01232-.02518-.01273a.75006.75006,0,0,1-.168-.11025l.1367-.04185c.02338.01944.09155.07486.1758.132a.40036.40036,0,0,1,.11937.15218l-.007.001-.0044.00207-.10975.01746A.32939.32939,0,0,0,3.81289,2.69068Zm-.32022-.57074.1342-.01142v.10629h-.1342Zm.10337.13587.06425.229L3.61547,2.497l-.06579-.24122Zm.56548,1.02.0003.00084a.07326.07326,0,0,1,.002.04751.0233.0233,0,0,1-.015.01222.02115.02115,0,0,1-.01823-.00084.0714.0714,0,0,1-.02444-.03962l-.00048-.00171L3.96,2.85214l.05884-.00936ZM3.9413,2.43489a.08947.08947,0,1,1,.1426.10809l-.08872.12137a.31282.31282,0,0,0-.05858-.05272c-.03046-.02067-.05874-.04108-.08349-.05959Zm-.18553.04021a.02052.02052,0,0,0-.01934-.004L3.702,2.48161l-.06335-.22579h.00874a.0205.0205,0,0,0,.0205-.0205V2.10025c.02833-.00064.05939-.001.09359-.001l.00488.3847Zm.27459-1.0447L3.991,1.73393H3.91639L3.88477,1.4304ZM1.88208.81316H1.57267V.74233h.30941ZM1.54481.864l.00736.00138h.35041L1.90995.864l.16031.11322H1.3845ZM1.04454.69987l.0017-.03679c.11466-.00675.85559-.00425,1.362-.00066l.00181.03747-.00032,0Zm.6708-.15137a2.14968,2.14968,0,0,1,.581.07219C2.16415.61989,1.94637.6187,1.72973.61815q-.121-.0003-.22223-.00031c-.10129,0-.18736.00023-.25723.00069L1.15951.61931A2.034,2.034,0,0,1,1.71534.54851Zm-.51216.53844a.38419.38419,0,0,0-.03912-.03885C1.12061,1.0082,1.055.94792,1.04762.89216A1.1134,1.1134,0,0,1,1.04324.74088h.48843V.823L1.3081.98094a.0205.0205,0,0,0,.01183.03725h.8149A.0205.0205,0,0,0,2.14665.98094L1.92309.823V.74088h.48665l.0017-.00008a1.098,1.098,0,0,1-.00411.14986c-.00727.05575-.07322.11618-.11686.15617a.3858.3858,0,0,0-.03929.03893.18041.18041,0,0,0-.03041.09833l.00079.00559H2.11693V1.10952a.02051.02051,0,0,0-.0205-.0205h-.7381a.0205.0205,0,0,0-.0205.0205v.08015H1.23309l.0005-.00451A.1812.1812,0,0,0,1.20317,1.08695Zm.87275.10272h-.6971V1.13h.6971Zm-.7176.041H3.82274l.00443.04253H.95284L.9562,1.23067Zm-.40871.08354H3.83144l.06295.60426L3.758,2.05825a1.58983,1.58983,0,0,0-.30582.02.53975.53975,0,0,0-.17671.07225.43437.43437,0,0,1-.11878.04669.85272.85272,0,0,1-.2027.01764c-.01753,0-.07025.00086-.14321.002l-.18289.00287c-.54416.00806-.84873.00651-.93113-.00472a.45278.45278,0,0,1-.22006-.10814C1.44329,2.0808,1.41915,2.062,1.39577,2.062H1.02525L.90242,1.91185Zm2.24856.91409a.46888.46888,0,0,0,.0979-.04235l.0363-.02033v.243h-.1342Zm-.81639.03559q.114-.0012.24672-.00316l.183-.00287.04-.00065v.14773h-.4697Zm-.84274.5306.20756-.34482h.32723l.20756.34482Zm.634.041a.02426.02426,0,0,1-.02423.02423H1.694a.02426.02426,0,0,1-.02423-.02423Zm-.58527-.43056V2.226a.3836.3836,0,0,0,.10347.02965c.04952.00675.17534.01012.3811.01012q.0702,0,.15288-.00052v.13971ZM1.30962,2.2448H1.10915V2.10671h.20047ZM1.036,2.103h.0321v.153l-.0321.028Zm.05005.19175.00255.00017h.24148l.00255-.00017.10281.0897H.98329Zm.40407.1307a.0205.0205,0,0,0,.01348-.036l-.153-.1335V2.103h.04515a.18988.18988,0,0,1,.05571.03622.77061.77061,0,0,0,.09526.0661v.22014a.0205.0205,0,0,0,.0205.0205H1.701l-.21578.35848a.0205.0205,0,0,0,.01757.03108h.126a.06531.06531,0,0,0,.06524.06524h.45479A.06531.06531,0,0,0,2.214,2.83549h.10363a.0205.0205,0,0,0,.01757-.03108l-.21578-.35848h.12627a.0205.0205,0,0,0,.0205-.0205V2.26494l.07456-.00064v.16113a.0205.0205,0,0,0,.0205.0205H2.872a.0205.0205,0,0,0,.0205-.0205V2.25656L2.954,2.25582a.91193.91193,0,0,0,.20317-.01672v.19006a.0205.0205,0,0,0,.0205.0205h.17521a.0205.0205,0,0,0,.0205-.0205V2.14569a.4307.4307,0,0,1,.07829-.02533v.115a.02051.02051,0,0,0,.0205.0205h.035l.07185.26343L3.55376,2.527a.0205.0205,0,0,0-.00795.03463.86684.86684,0,0,0,.20727.14179l.016.00793.01411,1.12881H3.45539V3.26419A.06531.06531,0,0,0,3.39015,3.199H1.42932a.06531.06531,0,0,0-.06524.06524v.57595H1.036V2.42543Zm1.92422,1.4147H1.40509V3.26419A.02426.02426,0,0,1,1.42932,3.24H3.39015a.02426.02426,0,0,1,.02423.02423Zm-2.39366.04059.00414.00042H3.79918l.17148.17148H.84882Z"/><text x="0" y="20" fill="#000000" font-size="5px" font-weight="bold" font-family="'Helvetica Neue', Helvetica, Arial-Unicode, Arial, Sans-serif">Created by Alice Noir</text><text x="0" y="25" fill="#000000" font-size="5px" font-weight="bold" font-family="'Helvetica Neue', Helvetica, Arial-Unicode, Arial, Sans-serif">from the Noun Project</text></svg>