<svg xmlns="http://www.w3.org/2000/svg" data-name="Layer 1" viewBox="0 0 5 6.25" x="0px" y="0px"><title>coffee_machine</title><path d="M4.29819,1.70971,4.09338,1.5049l0,0-.00247-.002-.00009-.00006L4.088,1.50129l0,0-.00307-.00093h0L4.08158,1.5H3.203l.00244-.21708V1.28275L3.203,1.2708l.00242-.21544V1.05518l-.00232-.0117L3.20541.8369V.83672L3.20534.83533l.00007-.001L3.20415.82806,3.203.82469,3.20541.6063V.60612c0-.02457-.0275-.043-.08406-.05628a.913.913,0,0,0-.35377,0C2.711.56315,2.68352.58156,2.68352.60612V.6418a.07832.07832,0,0,0-.08364.01306.08024.08024,0,0,0,.08364.13427V.83429l.00007.00118L2.68352.83672h0V.8724a.07832.07832,0,0,0-.08364.01306.08024.08024,0,0,0,.08364.13427v.07113a.07832.07832,0,0,0-.08364.01306.08024.08024,0,0,0,.08364.13427v.08024a.07832.07832,0,0,0-.08364.01306.08024.08024,0,0,0,.08364.13427V1.5H2.45959L2.462,1.28293V1.28275L2.45961,1.2708,2.462,1.05536V1.05518l-.00232-.0117L2.462.8369V.83672L2.45974.82511,2.462.62147V.62129L2.462.6199,2.462.61887,2.46077.61264,2.45957.60926,2.462.39088V.3907c0-.02457-.0275-.043-.08406-.05628a.91291.91291,0,0,0-.35377,0c-.05657.0133-.08406.03171-.08406.05628V.42638a.07832.07832,0,0,0-.08363.01306A.08024.08024,0,0,0,1.94014.5737V.61887L1.94022.62,1.94014.62129h0V.657A.07832.07832,0,0,0,1.85651.67.08024.08024,0,0,0,1.94014.8043V.8724a.07832.07832,0,0,0-.08363.01306.08024.08024,0,0,0,.08363.13427v.07113a.07832.07832,0,0,0-.08363.01306.08024.08024,0,0,0,.08363.13427v.08024a.07832.07832,0,0,0-.08363.01306.08024.08024,0,0,0,.08363.13427V1.5H1.72228l.00244-.21708V1.28275l-.00007-.00139.00007-.001-.00126-.00623-.00119-.00337.00245-.21839V1.05215c0-.02457-.0275-.043-.08406-.05628a.80946.80946,0,0,0-.17688-.0173.80947.80947,0,0,0-.17688.0173c-.05657.0133-.08406.03171-.08406.05628v.03568a.07832.07832,0,0,0-.08363.01306.08024.08024,0,0,0,.08363.13427v.04516l.00007.00118-.00007.00124h0v.03568a.07832.07832,0,0,0-.08363.01306.08024.08024,0,0,0,.08363.13427V1.5H.91842l-.00324.00032h0l-.00307.00093,0,0-.00279.00149-.00009.00006-.00247.002,0,0-.20481.20481a.0167.0167,0,0,0-.00489.0118v2.526a.01669.01669,0,0,0,.00581.01266l.09982.08577-.004.0108v.1335a.01669.01669,0,0,0,.01669.01669h.226v.1593a.01669.01669,0,0,0,.01669.01669h.3641a.01669.01669,0,0,0,.01669-.01669V4.5069H3.56121v.1593a.01669.01669,0,0,0,.01669.01669H3.942a.01669.01669,0,0,0,.01669-.01669V4.5069h.226a.01669.01669,0,0,0,.01669-.01669v-.1335l-.004-.01081.09982-.08577a.01669.01669,0,0,0,.00581-.01266v-2.526A.0167.0167,0,0,0,4.29819,1.70971ZM4.06486,4.40677H.93514L.936,3.95468H4.064Zm.02036-.48547-.00455-.00064h0l-.00451.00064H.92387L.91936,3.92066h0L.91478,3.9213H.82588V3.88793H4.17412V3.9213ZM.85431,3.85455l.05574-.04778L.91842,3.809H4.08006l.00926-.00281.05637.04832Zm.84425-2.32116.00736.002H1.7061l.00753-.002h.72224l.00736.002h.00018l.00753-.002h.72831l.00736.002h.00018l.00753-.002h.87057V2.43H3.80682l-.00918-.00276L3.78845,2.43H3.734l-.00918-.00276L3.71563,2.43H1.28437l-.00918-.00276L1.266,2.43H1.21155l-.00918-.00276L1.19318,2.43H.93511V1.53339Zm-.76345.93h.25056V2.612a.09268.09268,0,0,1-.03383.0798c-.0301.03311-.02964.07429-.02889.14253l.00027.03861v.56457H1.11565a.015.015,0,0,0-.015.015v.13654a.015.015,0,0,0,.015.015H1.24a.015.015,0,0,0,.015-.015V3.45252a.015.015,0,0,0-.015-.015H1.22943V2.89119l-.00028-.039c-.00076-.06851-.00025-.0972.02021-.11971a.12458.12458,0,0,0,.04251-.10225V2.46337h.54807V3.51775a.051.051,0,0,0,.05094.05094H2.93162a.051.051,0,0,0,.05094-.05094V2.46337h.12265v.15654a.05614.05614,0,0,0-.03489.05189v.225c0,.01183.00931.03166.07165.03166s.07165-.01984.07165-.03166v-.225a.05605.05605,0,0,0-.02776-.04832v-.1601h.52228v.16688a.12458.12458,0,0,0,.04251.10225c.02046.02251.021.05121.02021.11971l-.00028.039v.54636H3.76a.015.015,0,0,0-.015.015v.13654a.015.015,0,0,0,.015.015h.1244a.015.015,0,0,0,.015-.015V3.45252a.015.015,0,0,0-.015-.015H3.87677V2.873L3.877,2.83438c.00076-.06824.00121-.10942-.02889-.14253a.09268.09268,0,0,1-.03383-.0798V2.46337h.25056V3.77566H.93511Zm.32339,0v.16688a.09269.09269,0,0,1-.03383.0798c-.0301.03311-.02964.07429-.02889.14253l.00027.03861v.54636H1.15661V2.873l-.00028-.039c-.00076-.06851-.00025-.0972.02021-.11971A.12458.12458,0,0,0,1.21905,2.612V2.46337ZM1.13061,3.46748h.09447v.10661H1.13061Zm1.28064-.59969c.04531,0,.11746.08083.11746.17663,0,.09739-.05269.17663-.11746.17663s-.11746-.07923-.11746-.17663C2.29379,2.94862,2.36594,2.86779,2.41125,2.86779Zm-.207-.05366V2.76008h.41394v.055a.7456.7456,0,0,1-.18876.02061A1.22267,1.22267,0,0,1,2.20428,2.81413ZM2.63909,2.731,2.63275,2.7295h-.443L2.18341,2.731H2.06774V2.46337h.687V2.731Zm-.58588.02906h.122V2.826a.01453.01453,0,0,0,.01129.01416,1.144,1.144,0,0,0,.16509.02205.19913.19913,0,0,0-.03782.03828.23912.23912,0,0,0-.04905.144c0,.11341.06573.20568.14652.20568s.14652-.09227.14652-.20568A.23851.23851,0,0,0,2.473,2.86387a.623.623,0,0,0,.16452-.02419A.01453.01453,0,0,0,2.64727,2.826V2.76008h.122a.01453.01453,0,0,0,.01453-.01453V2.46337H2.9535V3.51775a.02191.02191,0,0,1-.02188.02188H1.89088A.02191.02191,0,0,1,1.869,3.51775V2.46337h.16968v.28218A.01453.01453,0,0,0,2.05321,2.76008Zm1.081-.14891V2.46728h.02253v.14389Zm-.00788.03361h.03115a.027.027,0,0,1,.027.027V2.8933a.15362.15362,0,0,1-.08518,0V2.67179A.027.027,0,0,1,3.12638,2.64478Zm.65456-.18141V2.612a.12458.12458,0,0,0,.04251.10225c.02046.02251.021.05121.02021.11971l-.00028.039v.56457H3.80395V2.89119l.00027-.03861c.00075-.06824.00121-.10942-.02889-.14253a.09268.09268,0,0,1-.03383-.0798V2.46337Zm-.006,1.00411h.09447v.10661H3.77492ZM2.71545,1.28118V1.09393a.24177.24177,0,0,0,.05214.01754.91291.91291,0,0,0,.35377,0,.24388.24388,0,0,0,.0517-.0173l-.00215.19136a.15185.15185,0,0,1-.06333.0239.89508.89508,0,0,1-.32619,0c-.048-.01046-.0635-.02254-.06577-.02667ZM3.17089.83707A.152.152,0,0,1,3.10756.861a.801.801,0,0,1-.16309.015A.71633.71633,0,0,1,2.75791.855C2.72211.84457,2.71607.83513,2.71545.83394V.64487A.24177.24177,0,0,0,2.76758.6624a.80944.80944,0,0,0,.17688.0173A.80946.80946,0,0,0,3.12135.6624.24382.24382,0,0,0,3.173.6451ZM2.76758.893a.91291.91291,0,0,0,.35377,0A.24382.24382,0,0,0,3.173.8757l-.002.18216a.15089.15089,0,0,1-.06344.024.89508.89508,0,0,1-.32619,0c-.048-.01046-.0635-.02254-.06577-.02667l-.00016-.00157V.87546A.24177.24177,0,0,0,2.76758.893ZM2.78137.57945a.895.895,0,0,1,.32619,0c.048.01045.06349.02254.06577.02667-.00227.00413-.01781.01622-.06577.02667a.801.801,0,0,1-.16309.015.801.801,0,0,1-.16309-.015c-.048-.01045-.0635-.02254-.06577-.02667C2.71787.602,2.73341.58991,2.78137.57945ZM2.61713.747a.04836.04836,0,0,1,.004-.06828A.04924.04924,0,0,1,2.68352.67813V.75248A.04838.04838,0,0,1,2.61713.747Zm0,.2306a.04836.04836,0,0,1,.004-.06828A.04924.04924,0,0,1,2.68352.90873V.98308A.04838.04838,0,0,1,2.61713.97759Zm0,.21846a.04836.04836,0,0,1,.004-.06828.04924.04924,0,0,1,.06241-.00058v.07435A.04838.04838,0,0,1,2.61713,1.19605Zm0,.22756a.04836.04836,0,0,1,.004-.06828.04924.04924,0,0,1,.06241-.00058v.07435A.04838.04838,0,0,1,2.61713,1.42362Zm.09831-.10212a.24182.24182,0,0,0,.05214.01754.91291.91291,0,0,0,.35377,0,.24388.24388,0,0,0,.0517-.0173L3.171,1.5h-.4556Zm-.74338-.04031V1.09393a.24175.24175,0,0,0,.05214.01754.91291.91291,0,0,0,.35377,0,.24385.24385,0,0,0,.0517-.0173l-.00215.19136a.15185.15185,0,0,1-.06333.0239.89508.89508,0,0,1-.32619,0c-.048-.01046-.0635-.02254-.06577-.02667ZM2.42751.62164a.152.152,0,0,1-.06333.02389.80112.80112,0,0,1-.16309.015.71635.71635,0,0,1-.18656-.0209C1.97874.62915,1.9727.6197,1.97207.61851V.42944A.24187.24187,0,0,0,2.0242.447a.80945.80945,0,0,0,.17688.0173A.80947.80947,0,0,0,2.378.447a.24387.24387,0,0,0,.0517-.01731ZM2.0242.67758a.80946.80946,0,0,0,.17688.0173A.80947.80947,0,0,0,2.378.67758a.24379.24379,0,0,0,.0517-.01731l-.002.1791a.15055.15055,0,0,1-.06347.024.89508.89508,0,0,1-.32619,0C1.99.85294,1.9745.84085,1.97222.83672L1.97207.83516V.66A.24187.24187,0,0,0,2.0242.67758Zm0,.21543a.91291.91291,0,0,0,.35377,0,.24379.24379,0,0,0,.0517-.0173l-.002.18216a.1509.1509,0,0,1-.06344.024.89508.89508,0,0,1-.32619,0c-.048-.01046-.0635-.02254-.06577-.02667l-.00016-.00157V.87546A.24175.24175,0,0,0,2.0242.893ZM2.038.364a.895.895,0,0,1,.32619,0c.048.01046.0635.02254.06577.02667-.00227.00413-.01781.01622-.06577.02667a.801.801,0,0,1-.16309.015A.801.801,0,0,1,2.038.41737C1.99.40691,1.9745.39482,1.97222.3907,1.9745.38657,1.99.37448,2.038.364ZM1.87375.53156a.04836.04836,0,0,1,.004-.06828A.04924.04924,0,0,1,1.94014.46271V.53706A.04838.04838,0,0,1,1.87375.53156Zm0,.2306a.04836.04836,0,0,1,.004-.06828A.04924.04924,0,0,1,1.94014.6933V.76765A.04838.04838,0,0,1,1.87375.76216Zm0,.21543a.04836.04836,0,0,1,.004-.06828A.04924.04924,0,0,1,1.94014.90873V.98308A.04838.04838,0,0,1,1.87375.97759Zm0,.21846a.04836.04836,0,0,1,.004-.06828.04925.04925,0,0,1,.06241-.00058v.07435A.04838.04838,0,0,1,1.87375,1.19605Zm0,.22756a.04836.04836,0,0,1,.004-.06828.04924.04924,0,0,1,.06241-.00058v.07435A.04838.04838,0,0,1,1.87375,1.42362Zm.09831-.10212A.24181.24181,0,0,0,2.0242,1.339a.91291.91291,0,0,0,.35377,0,.24385.24385,0,0,0,.0517-.0173L2.42766,1.5h-.4556ZM1.6902,1.2831a.152.152,0,0,1-.06333.02389.80113.80113,0,0,1-.16309.015.71635.71635,0,0,1-.18656-.0209c-.03579-.01047-.04183-.01992-.04246-.02111V1.09089a.24189.24189,0,0,0,.05214.01754.80946.80946,0,0,0,.17688.0173.80946.80946,0,0,0,.17688-.0173.24387.24387,0,0,0,.0517-.0173Zm-.38952-.25762a.80113.80113,0,0,1,.1631-.015.80113.80113,0,0,1,.16309.015c.048.01046.06349.02254.06577.02667-.00227.00413-.01781.01622-.06577.02667a.80114.80114,0,0,1-.16309.015.80111.80111,0,0,1-.16309-.015c-.048-.01046-.0635-.02254-.06577-.02667C1.23719,1.048,1.25272,1.03594,1.30068,1.02548ZM1.13644,1.193a.04836.04836,0,0,1,.004-.06828.04924.04924,0,0,1,.06241-.00058v.07435A.04838.04838,0,0,1,1.13644,1.193Zm0,.2306a.04836.04836,0,0,1,.004-.06828.04924.04924,0,0,1,.06241-.00058v.07435A.04838.04838,0,0,1,1.13644,1.42362Zm.09831-.10212a.24183.24183,0,0,0,.05214.01754.80946.80946,0,0,0,.17688.0173.80946.80946,0,0,0,.17688-.0173.24385.24385,0,0,0,.0517-.0173L1.69035,1.5h-.4556ZM.7303,1.72842.90174,1.557V3.76994l-.1034.08863-.00017.00018-.00147.00147-.00025.00027-.00131.00179-.00024.0004-.00178.00416L.793,3.86727l-.0004.00222v0L.7925,3.87124V3.938a.01669.01669,0,0,0,.01669.01669H.90261l-.0008.4325L.7303,4.23982Zm.67511,2.92109H1.07469V4.5069h.33073Zm2.5199,0H3.59459V4.5069h.33073Zm.24274-.176H.83195V4.37116l.0756.065.00012.00009.00168.00124.00042.00025.00159.00086.00034.00016.002.00074L.914,4.43954l.0018.00039L.91629,4.44l.00213.00015H4.08006l.00078,0,.00074,0,.01088-.004.0756-.065Zm.10165-.23371-.1715.14736-.00081-.4325h.09342A.01669.01669,0,0,0,4.2075,3.938V3.87124l-.00009-.00173v0L4.207,3.86727l-.00011-.00043-.00177-.00416-.00024-.0004-.00131-.00179-.00025-.00027-.00147-.00147-.00017-.00018-.1034-.08863V1.557l.17143.17143Z"/><path d="M1.25863,1.85332a.21522.21522,0,1,0,.21522.21522A.21547.21547,0,0,0,1.25863,1.85332Zm0,.40051a.18529.18529,0,1,1,.18529-.18529A.1855.1855,0,0,1,1.25863,2.25384Z"/><path d="M1.04738,1.77895H3.95262a.015.015,0,0,0,.015-.015V1.61531a.015.015,0,0,0-.015-.015H1.04738a.015.015,0,0,0-.015.015V1.764A.015.015,0,0,0,1.04738,1.77895Zm.015-.14867H3.93766V1.749H1.06234Z"/><path d="M2.6464,1.96748a.09689.09689,0,1,0,.09689.09689A.097.097,0,0,0,2.6464,1.96748Zm0,.16385a.067.067,0,1,1,.067-.067A.067.067,0,0,1,2.6464,2.13133Z"/><path d="M2.41277,1.96748a.09689.09689,0,1,0,.09689.09689A.097.097,0,0,0,2.41277,1.96748Zm0,.16385a.067.067,0,1,1,.067-.067A.067.067,0,0,1,2.41277,2.13133Z"/><path d="M2.17913,1.96748a.09689.09689,0,1,0,.09689.09689A.097.097,0,0,0,2.17913,1.96748Zm0,.16385a.067.067,0,1,1,.067-.067A.067.067,0,0,1,2.17913,2.13133Z"/><path d="M1.9455,1.96748a.09689.09689,0,1,0,.09689.09689A.097.097,0,0,0,1.9455,1.96748Zm0,.16385a.067.067,0,1,1,.067-.067A.067.067,0,0,1,1.9455,2.13133Z"/><path d="M1.71187,1.96748a.09689.09689,0,1,0,.09689.09689A.097.097,0,0,0,1.71187,1.96748Zm0,.16385a.067.067,0,1,1,.067-.067A.067.067,0,0,1,1.71187,2.13133Z"/><path d="M3.22366,1.852a.20936.20936,0,1,0,.20936.20936A.2096.2096,0,0,0,3.22366,1.852Zm.14413.22908h.03073a.17524.17524,0,0,1-.04163.09507l-.021-.021a.01669.01669,0,1,0-.0236.0236l.02053.02053a.17506.17506,0,0,1-.09547.03749V2.2085a.01669.01669,0,1,0-.03338,0v.02769A.17522.17522,0,0,1,3.11048,2.196l.0194-.0194a.01669.01669,0,0,0-.0236-.0236l-.0192.0192a.17514.17514,0,0,1-.0386-.09414h.028a.01669.01669,0,0,0,0-.03338h-.028a.17517.17517,0,0,1,.03915-.09484l.02079.02079A.01669.01669,0,0,0,3.132,1.947l-.02087-.02087a.17519.17519,0,0,1,.09581-.04v.031a.01669.01669,0,0,0,.03338,0v-.031a.17519.17519,0,0,1,.09648.04054l-.02243.02243a.01669.01669,0,0,0,.0236.0236l.02224-.02223a.17511.17511,0,0,1,.03883.09717H3.36778a.01669.01669,0,1,0,0,.03338Z"/><path d="M3.27368,1.98772l-.02963.02963a.04871.04871,0,1,0,.0236.0236l.02963-.02963a.01669.01669,0,0,0-.0236-.0236Z"/><path d="M3.56716,1.9133a.20936.20936,0,1,0,.29608,0A.20959.20959,0,0,0,3.56716,1.9133Zm.29368.1641h.02951a.1752.1752,0,0,1-.03949.096l-.022-.022a.01669.01669,0,1,0-.0236.0236l.022.022a.1752.1752,0,0,1-.09689.03955V2.20483a.01669.01669,0,1,0-.03338,0v.03144A.17513.17513,0,0,1,3.60082,2.195l.02212-.02212a.01669.01669,0,1,0-.0236-.0236L3.57761,2.171a.17526.17526,0,0,1-.03779-.09667h.02973a.01669.01669,0,1,0,0-.03338h-.029a.17505.17505,0,0,1,.041-.094l.02.02a.01669.01669,0,0,0,.0236-.0236L3.6055,1.92375A.17519.17519,0,0,1,3.7,1.88612v.02743a.01669.01669,0,1,0,.03338,0V1.8864a.17519.17519,0,0,1,.09386.03927l-.01981.01981a.01669.01669,0,0,0,.0236.0236l.01981-.01981a.17518.17518,0,0,1,.03938.09475h-.0294a.01669.01669,0,1,0,0,.03338Z"/><path d="M3.68087,2.027a.04844.04844,0,0,0,.01764.07986v.0419a.01669.01669,0,0,0,.03338,0v-.0419a.04852.04852,0,1,0-.051-.07986Z"/><path d="M1.32193,1.98165l-.15019.15019a.01669.01669,0,1,0,.0236.0236l.15019-.15019a.01669.01669,0,1,0-.0236-.0236Z"/><path d="M1.53588,2.87775A.21522.21522,0,1,0,1.7511,3.093.21547.21547,0,0,0,1.53588,2.87775Zm0,.40051A.18529.18529,0,1,1,1.72118,3.093.1855.1855,0,0,1,1.53588,3.27826Z"/><path d="M1.47259,3.00607a.01669.01669,0,0,0-.0236.0236l.15019.15019a.01669.01669,0,0,0,.0236-.0236Z"/><path d="M3.4717,2.87775a.21522.21522,0,1,0,.21522.21522A.21547.21547,0,0,0,3.4717,2.87775Zm0,.40051A.18529.18529,0,1,1,3.657,3.093.1855.1855,0,0,1,3.4717,3.27826Z"/><path d="M3.40841,3.00607a.01669.01669,0,0,0-.0236.0236l.15019.15019a.01669.01669,0,0,0,.0236-.0236Z"/><text x="0" y="20" fill="#000000" font-size="5px" font-weight="bold" font-family="'Helvetica Neue', Helvetica, Arial-Unicode, Arial, Sans-serif">Created by Alice Noir</text><text x="0" y="25" fill="#000000" font-size="5px" font-weight="bold" font-family="'Helvetica Neue', Helvetica, Arial-Unicode, Arial, Sans-serif">from the Noun Project</text></svg>