<svg xmlns="http://www.w3.org/2000/svg" data-name="Layer 1" viewBox="0 0 100 125" x="0px" y="0px"><title>40 all</title><path d="M63,10H37A10,10,0,0,0,27,20V80A10,10,0,0,0,37,90H63A10,10,0,0,0,73,80V20A10,10,0,0,0,63,10ZM55,83H45a2,2,0,1,1,0-4H55a2,2,0,0,1,0,4ZM69,73H31V23H69Z"/><text x="0" y="115" fill="#000000" font-size="5px" font-weight="bold" font-family="'Helvetica Neue', Helvetica, Arial-Unicode, Arial, Sans-serif">Created by Nirbhay</text><text x="0" y="120" fill="#000000" font-size="5px" font-weight="bold" font-family="'Helvetica Neue', Helvetica, Arial-Unicode, Arial, Sans-serif">from the Noun Project</text></svg>