<svg xmlns="http://www.w3.org/2000/svg" xmlns:xlink="http://www.w3.org/1999/xlink" version="1.1" x="0px" y="0px" viewBox="0 0 100 125" enable-background="new 0 0 100 100" xml:space="preserve"><path d="M41.7,94.4h15.7c0.3,0,0.6-0.1,0.8-0.3c1.1-1.1,1.1-3,0-4.2c-0.2-0.2-0.5-0.3-0.8-0.3h-3.5c-1.2-1-2.8-1.6-4.4-1.6  s-3.2,0.6-4.4,1.6h-3.5c-0.3,0-0.6,0.1-0.8,0.3c-1.1,1.1-1.1,3,0,4.2C41.1,94.3,41.4,94.4,41.7,94.4z M49.5,89  c0.9,0,1.8,0.2,2.6,0.6H47C47.8,89.2,48.6,89,49.5,89z M41.7,90.8h12.2l3.4,0c0.7,0.7,0.7,1.7,0,2.4H45.2l-3.4,0  c-0.3-0.3-0.5-0.8-0.5-1.2C41.2,91.5,41.4,91.1,41.7,90.8z"/><path d="M50.8,95.1h-2.6c-0.3,0-0.6,0.3-0.6,0.6s0.3,0.6,0.6,0.6h2.6c0.3,0,0.6-0.3,0.6-0.6S51.2,95.1,50.8,95.1z"/><path d="M35.5,94.3c1.5,0,2.7-1.2,2.7-2.7s-1.2-2.7-2.7-2.7s-2.7,1.2-2.7,2.7S34.1,94.3,35.5,94.3z M35.5,90.1  c0.8,0,1.5,0.7,1.5,1.5s-0.7,1.5-1.5,1.5c-0.8,0-1.5-0.7-1.5-1.5S34.7,90.1,35.5,90.1z"/><path d="M63.5,94.3c1.5,0,2.7-1.2,2.7-2.7s-1.2-2.7-2.7-2.7s-2.7,1.2-2.7,2.7S62,94.3,63.5,94.3z M63.5,90.1c0.8,0,1.5,0.7,1.5,1.5  s-0.7,1.5-1.5,1.5S62,92.4,62,91.6S62.7,90.1,63.5,90.1z"/><path d="M36.7,43.6c0.2-0.3,0.2-0.7-0.1-0.9c-0.3-0.2-0.7-0.2-0.9,0.1L34.1,45l2.4-1.1C36.6,43.8,36.7,43.7,36.7,43.6z"/><circle cx="45.2" cy="43.6" r="0.4"/><circle cx="53.8" cy="43.6" r="0.4"/><path d="M62.4,44c-0.6,0-1.1,0.5-1.1,1.1v1.3c0,0.6,0.5,1.1,1.1,1.1h1.3c0.6,0,1.1-0.5,1.1-1.1v-1.3c0-0.6-0.5-1.1-1.1-1.1H62.4z"/><path d="M71.6,49.9C71.6,49.9,71.6,49.9,71.6,49.9l-3,0v-0.5c0-0.3-0.3-0.6-0.6-0.6h-1.6v-0.1c0-0.3-0.3-0.6-0.6-0.6h-5.7  c-0.3,0-0.6,0.3-0.6,0.6v0.1h-0.4v-5.5c0-1-0.3-1.8-0.7-2.6c3.3-1.4,5.7-4.7,5.7-8.5v-8.6h1c0.3,0,0.6-0.3,0.6-0.6s-0.3-0.6-0.6-0.6  h-0.3v-0.6c0-0.3-0.2-0.5-0.4-0.6l-7.7-2.4c-1.7-0.5-3.4-0.8-5.2-0.8c0,0,0,0,0,0h-3.7c-1.8,0-3.6,0.3-5.3,0.8l-7.7,2.4  c-0.3,0.1-0.4,0.3-0.4,0.6v0.6h-0.3c-0.3,0-0.6,0.3-0.6,0.6s0.3,0.6,0.6,0.6h1v8.6c0,4.1,2.7,7.6,6.4,8.8v7.8h-2.6v-0.6  c0-0.3-0.3-0.6-0.6-0.6h-0.7v-0.5c1.6-0.6,2.7-2,2.7-3.8c0-2.2-1.8-4-4-4s-4,1.8-4,4c0,1.8,1.1,3.2,2.7,3.8v0.5h-0.7  c-0.3,0-0.6,0.3-0.6,0.6v4.5c0,0.3,0.3,0.6,0.6,0.6h0.7v15.6h-0.2c-0.3,0-0.6,0.3-0.6,0.6c0,0.3,0.2,0.6,0.5,0.6  c-0.3,0-0.5,0.3-0.5,0.6c0,0.3,0.3,0.6,0.6,0.6h-0.4c-0.2,0-0.3,0.1-0.4,0.2s-0.2,0.3-0.2,0.5l0.4,3.9c0,0.3,0.3,0.5,0.6,0.5h3.3  c0.3,0,0.6-0.2,0.6-0.5l0-0.3h2.9v0.3C39.4,76,38,77.6,38,79.6v4.9h-8.6c-1.1,0-2,0.9-2,2v11.2c0,0.3,0.3,0.6,0.6,0.6h43.2  c0.3,0,0.6-0.3,0.6-0.6V86.5c0-1.1-0.9-2-2-2h-6.1v-7.3l0.8,0.4c1.2,0.4,2.6-0.4,2.9-1.6S67,73.4,65.7,73l-2.1-0.2c0,0,0,0,0-0.1  v-3.2c0-1.5-0.6-2.9-1.6-4l-4.2-4.2v-9.1h1.8v0.1c0,0.3,0.3,0.6,0.6,0.6h5.7c0.3,0,0.6-0.3,0.6-0.6v-0.1H68c0.3,0,0.6-0.3,0.6-0.6  v-0.5h2.3l-1.4,0.7c-0.9,0.4-1.5,1.2-1.6,2.1l-1.8,9.2c-0.5,0.1-0.9,0.4-1,0.9l-0.7,2.6c-0.1,0.3,0,0.7,0.1,1  c0.2,0.3,0.5,0.5,0.9,0.6l0.5,0.1c0.1,0,0.2,0,0.3,0c0.7,0,1.2-0.5,1.3-1.1l0.3-2.7c0-0.5-0.2-0.9-0.6-1.1l1.8-9.2  c0.1-0.5,0.5-1,1-1.3l2-1c0,0,0,0,0,0c0,0,0.1,0,0.1-0.1c0.3-0.2,0.4-0.5,0.4-0.9C72.7,50.4,72.2,49.9,71.6,49.9z M57.7,48.8V42  c0.2,0.4,0.3,0.9,0.3,1.4v5.5H57.7z M56.5,83.4h-3.8c0.7-1.4,1.1-2.8,1.3-4.4l0.1-0.9c0-0.3-0.1-0.7-0.3-1c-0.2-0.3-0.6-0.4-0.9-0.4  h-7c-0.3,0-0.7,0.2-0.9,0.4c-0.2,0.3-0.3,0.6-0.3,1l0.1,0.9c0.2,1.5,0.7,3,1.3,4.4h-3.8v-5.6c0.1,0,0.3,0.1,0.4,0.1  c0.9,0,1.6-0.7,1.6-1.6s-0.7-1.6-1.6-1.6c-0.2,0-0.3,0-0.4,0.1v-7.3c1.1,0.9,2.4,1.5,3.8,1.9v0.2c0,0.9,0.7,1.6,1.6,1.6h1.5  c-0.3,0.1-0.5,0.3-0.5,0.6c0,0.4,0.3,0.7,0.7,0.7s0.7-0.3,0.7-0.7v0c0-0.2-0.1-0.4-0.2-0.5l2.5,0.7c0,0,0,0,0.1,0  c0,0.7,0.4,1.4,1.2,1.6l2.9,0.8c0,0.1,0,0.1,0,0.2V83.4z M50.5,41.7v2.5c0,0.3-0.2,0.6-0.4,0.8v-1.6C50.1,42.7,50.3,42.2,50.5,41.7z   M48.5,41.5h0.8c-0.2,0.6-0.4,1.2-0.4,1.9v1.6c-0.2-0.2-0.4-0.5-0.4-0.8V41.5z M50.3,50.4c3.4,0,6.3,2.8,6.3,6.3c0,0,0,0,0,0v0.9  h-14v-0.9c0-3.5,2.8-6.3,6.3-6.3H50.3z M51.1,69.9h-3.2c-0.2,0-0.4-0.1-0.4-0.3c0.7,0.1,1.3,0.2,2,0.2c0.7,0,1.4-0.1,2-0.2  C51.5,69.8,51.3,69.9,51.1,69.9z M49.5,68.6c-2.2,0-4.2-0.6-5.9-1.8h11.7C53.7,67.9,51.7,68.6,49.5,68.6z M44.3,58.8  c0.3,2.5,2.2,4.4,4.7,4.7v2.2h-6.4v-6.8H44.3z M56.5,65.6h-6.4v-2.2c2.5-0.3,4.4-2.2,4.7-4.7h1.7V65.6z M47.6,83.4  c-0.7-1.4-1.2-2.9-1.5-4.5L46,78l7,0l-0.1,0.9c-0.2,1.6-0.7,3.1-1.5,4.5H47.6z M54.7,70.5c-0.6-0.2-1.3,0-1.7,0.5  c0,0-0.1-0.1-0.1-0.1l-0.6-0.2c0.3-0.3,0.5-0.7,0.5-1.2v-0.2c1.4-0.4,2.7-1,3.8-1.9V71L54.7,70.5z M50.6,49.2  c0.2-0.1,0.3-0.3,0.3-0.5c0-0.3-0.3-0.6-0.6-0.6h-0.2v-2c0.8-0.3,1.4-1,1.4-1.9v-2.7H55c0.5,0,1.1-0.1,1.6-0.1v8.1c0,0,0,0,0,0v2.1  c0,0,0,0,0,0v1C55.3,50.6,53.1,49.3,50.6,49.2z M51.7,40.3c0.7-0.5,1.5-0.8,2.4-0.8c0.8,0,1.6,0.3,2.3,0.7c-0.4,0.1-0.9,0.1-1.4,0.1  H51.7z M35.5,22.3l7.3-2.3c1.6-0.5,3.2-0.7,4.9-0.7h3.7c0,0,0,0,0,0c1.7,0,3.3,0.2,4.9,0.7l7.3,2.3v0.2H35.5V22.3z M36.1,32.3v-8.6  h26.8v8.6c0,3.4-2.2,6.3-5.2,7.5c-0.9-0.9-2.2-1.5-3.7-1.5c-1.7,0-3.1,0.8-4.1,2h-5.9C39.7,40.3,36.1,36.7,36.1,32.3z M44.1,41.5  h3.4v2.7c0,0.9,0.6,1.6,1.4,1.9v2h-0.2c-0.3,0-0.6,0.3-0.6,0.6c0,0.2,0.1,0.4,0.3,0.5c-2.5,0.1-4.7,1.4-5.9,3.4V41.3  C43,41.4,43.6,41.5,44.1,41.5z M38.8,50h2.6V51h-2.6V50z M33.3,43.4c0-1.6,1.3-2.8,2.8-2.8c1.6,0,2.8,1.3,2.8,2.8  c0,1.6-1.3,2.8-2.8,2.8C34.6,46.2,33.3,44.9,33.3,43.4z M36,47.4C36.1,47.4,36.1,47.4,36,47.4c0.1,0,0.2,0,0.2,0v0.3H36V47.4z   M34.7,48.9h0.7h1.4h0.7v3.3h-0.7c0,0,0,0,0,0h-1.4c0,0,0,0,0,0h-0.7V48.9z M36,53.3h0.2v15.6H36V53.3z M35,75.1l-0.2-2.7h2.7l0,0.1  c0,0,0,0,0,0.1l-0.2,2l0,0.4H35z M41.3,74.3h-2.8l0.1-0.9h2.7V74.3z M38.7,72.1l0-0.2c0-0.2,0-0.3-0.2-0.5c-0.1-0.1-0.3-0.2-0.4-0.2  h-0.6c0.3,0,0.6-0.3,0.6-0.6c0-0.3-0.2-0.6-0.5-0.6c0.3,0,0.5-0.3,0.5-0.6c0-0.3-0.3-0.6-0.6-0.6h-0.1V53.3h0.7  c0.3,0,0.6-0.3,0.6-0.6v-0.6h2.6v20H38.7z M39.2,79.6c0-1.3,0.9-2.4,2.1-2.7v6.5h-1.5c-0.3,0-0.6,0.3-0.6,0.6c0,0.2,0.1,0.4,0.2,0.5  h-0.3V79.6z M70.5,86.5v10.6h-42V86.5c0-0.5,0.4-0.8,0.8-0.8h40.3C70.2,85.7,70.5,86.1,70.5,86.5z M62.4,76.8v7.6h-2.9  c0.1-0.1,0.2-0.3,0.2-0.5c0-0.3-0.3-0.6-0.6-0.6h-1.4v-8.6l1.5,0.4c1.1,0.3,2.2,0.8,3.3,1.3l0,0C62.4,76.7,62.4,76.7,62.4,76.8z   M61.1,66.3c0.8,0.8,1.3,2,1.3,3.1v3.1c-0.8-0.1-1.5-0.3-2.3-0.5l-2.4-0.7c0-0.1,0-0.1,0-0.2v-5.1c0,0,0,0,0,0V63L61.1,66.3z   M57.7,51V50h1.8V51H57.7z M65.3,51.7h-4.5v-0.1v-2.1v-0.1h4.5v0.1v2.1V51.7z M67.4,51h-1V50h1V51z M66.4,67.1c0,0,0,0-0.1,0  L65.7,67c-0.1,0-0.1-0.1-0.1-0.1l0.7-2.6c0,0,0,0,0.1,0l0.1,0c0.1,0,0.1,0.1,0.1,0.1L66.4,67.1z"/><path d="M46.9,9.3L46.9,9.3c0,0.9,0.3,1.7,1,2.3c0.7,0.6,1,0.9,1.1,1.1V13c-1.1,0.3-1.9,1.3-1.9,2.4c0,0.1,0,0.7,0.5,1.2  c0.4,0.5,1.1,0.7,2.1,0.7s1.6-0.2,2.1-0.7c0.5-0.5,0.5-1.2,0.5-1.2c0-1.2-0.8-2.2-1.9-2.5v-0.3c0.2-0.2,0.5-0.5,1.1-1.1  c0.6-0.6,1-1.4,1-2.3l1.4-1.5c0.8-0.8,1.2-1.8,1.2-2.9V2.3c0-0.2-0.1-0.5-0.4-0.6c-0.2-0.1-0.5,0-0.7,0.1l-3.7,3.7  c-0.1,0.1-0.2,0.3-0.2,0.4v1.9h-0.4h-0.4V5.9c0-0.2-0.1-0.3-0.2-0.4l-3.7-3.7c-0.2-0.2-0.4-0.2-0.7-0.1c-0.2,0.1-0.4,0.3-0.4,0.6V5  c0,1.1,0.4,2.1,1.2,2.9L46.9,9.3z M50.9,15.5c0,0,0,0.2-0.2,0.4c-0.2,0.2-0.6,0.3-1.2,0.3s-1-0.1-1.2-0.3c-0.2-0.2-0.2-0.4-0.2-0.4  c0-0.7,0.6-1.3,1.3-1.3S50.9,14.7,50.9,15.5z M51.1,8.5V6.2l2.5-2.5V5c0,0.8-0.3,1.5-0.8,2l-1.6,1.6C51,8.7,51,8.9,51,9v0.3  c0,0.5-0.2,1-0.6,1.4c-0.1,0.1-0.2,0.2-0.3,0.3V9.1h0.4C50.8,9.1,51.1,8.8,51.1,8.5z M45.5,3.7l2.5,2.5v2.3c0,0.3,0.3,0.6,0.6,0.6  h0.4V11c-0.1-0.1-0.2-0.2-0.3-0.3c-0.4-0.4-0.6-0.9-0.6-1.4V9c0-0.2-0.1-0.3-0.2-0.4L46.3,7c-0.5-0.5-0.8-1.2-0.8-2V3.7z"/><path d="M49.5,74.2c-0.4,0-0.7,0.3-0.7,0.7s0.3,0.7,0.7,0.7s0.7-0.3,0.7-0.7v0C50.2,74.4,49.9,74.2,49.5,74.2z"/><path d="M42.8,92.7c0.4,0,0.7-0.3,0.7-0.7v0c0-0.4-0.3-0.6-0.7-0.6s-0.7,0.3-0.7,0.7S42.5,92.7,42.8,92.7z"/><path d="M56.2,92.7c0.4,0,0.7-0.3,0.7-0.7v0c0-0.4-0.3-0.6-0.7-0.6s-0.7,0.3-0.7,0.7S55.9,92.7,56.2,92.7z"/><text x="0" y="115" fill="#000000" font-size="5px" font-weight="bold" font-family="'Helvetica Neue', Helvetica, Arial-Unicode, Arial, Sans-serif">Created by Eric M. Ellis</text><text x="0" y="120" fill="#000000" font-size="5px" font-weight="bold" font-family="'Helvetica Neue', Helvetica, Arial-Unicode, Arial, Sans-serif">from the Noun Project</text></svg>