<svg xmlns="http://www.w3.org/2000/svg" xmlns:xlink="http://www.w3.org/1999/xlink" version="1.1" x="0px" y="0px" viewBox="0 0 100 125" enable-background="new 0 0 100 100" xml:space="preserve"><g display="none"><rect x="-246" y="-495" display="inline" fill="#000000" width="1156" height="606.478"/></g><g><path d="M6.144,61.005l0.116,0.052l0.026,0.126c0.557,2.723,2.98,4.699,5.761,4.699c3.174,0,5.752-2.487,5.87-5.663l0.009-0.241   H20.4l0.046,0.19c0.476,1.947,1.883,3.53,3.764,4.233l0.163,0.061v24.149h-4.105v4.105h-9.608v2.182h11.79v-4.105h4.105V64.786   l0.231-0.018c1.692-0.129,3.264-0.975,4.313-2.319l0.195-0.25l0.198,0.247c1.204,1.508,3.014,2.372,4.965,2.372   c1.975,0,3.798-0.882,5.002-2.419l0.194-0.248l0.197,0.246c1.249,1.556,3.145,2.447,5.203,2.447c1.997,0,3.857-0.848,5.106-2.325   l0.193-0.229l0.19,0.231c1.204,1.46,2.993,2.297,4.908,2.297c1.957,0,3.77-0.868,4.974-2.382l0.193-0.243l0.196,0.24   c1.248,1.532,3.132,2.411,5.169,2.411c1.933,0,3.755-0.803,5-2.203l0.191-0.215l0.186,0.219c1.057,1.245,2.533,1.999,4.156,2.123   l0.231,0.018v26.008h4.106v4.105h11.789v-2.182h-2.807v-5.113l0.199-0.042c2.836-0.593,4.844-3.228,4.67-6.129   c-0.151-2.517-2.001-4.661-4.369-5.318c1.656-0.618,2.844-2.202,2.844-4.071c0-2.402-1.955-4.357-4.358-4.357   s-4.357,1.955-4.357,4.357c0,1.873,1.194,3.459,2.856,4.074c-0.982,0.258-1.892,0.747-2.636,1.48   c-1.132,1.116-1.755,2.606-1.755,4.196c0,2.774,1.968,5.2,4.681,5.768l0.199,0.042v5.112h-4.773v-4.105h-4.106V64.462l0.163-0.061   c2.358-0.882,3.943-3.16,3.943-5.669V40.711H59.902l0.7-0.459c1.818-1.192,3.404-2.749,4.712-4.625l0.075-0.107h5.423   c2.754,0,4.995-2.456,4.995-5.476s-2.241-5.477-4.995-5.477h-1.961l0.006-0.32l0.002-4.064H35.442V24.2   c0,6.551,3.159,12.702,8.244,16.053l0.696,0.459H20.267v17.085h-2.853c-0.911,0-1.652,0.741-1.652,1.652l-0.023,0.803   c-0.129,1.924-1.735,3.449-3.691,3.449c-1.517,0-2.903-0.959-3.448-2.388l-0.084-0.219l0.213-0.098   c1.369-0.626,2.094-2.097,1.762-3.575c-0.254-1.136-1.185-2.073-2.315-2.335c-0.962-0.222-1.945-0.005-2.7,0.596   c-0.757,0.603-1.191,1.499-1.191,2.462C4.285,59.373,5.015,60.496,6.144,61.005z M87.491,72.044c0-1.285,1.045-2.33,2.33-2.33   c1.285,0,2.331,1.045,2.331,2.33s-1.045,2.331-2.331,2.331C88.537,74.375,87.491,73.33,87.491,72.044z M85.955,81.795   c0-2.132,1.734-3.866,3.866-3.866s3.866,1.734,3.866,3.866s-1.734,3.866-3.866,3.866S85.955,83.927,85.955,81.795z M74.101,42.893   h7.752v15.84c0,2.138-1.739,3.876-3.876,3.876s-3.876-1.738-3.876-3.876V42.893z M63.671,42.893h8.248v16.461   c0,0.676-0.24,1.314-0.675,1.796c-0.805,0.894-1.994,1.406-3.262,1.406c-2.337,0-4.312-1.751-4.312-3.823V42.893z M61.489,42.893   l-0.015,16.09c-0.148,2.035-1.898,3.6-4.024,3.6c-2.282,0-4.209-1.763-4.209-3.85v-15.84H61.489z M66.872,32.98   c0.906-1.884,1.509-3.907,1.792-6.014l0.029-0.217h2.119c1.551,0,2.813,1.479,2.813,3.295s-1.262,3.294-2.813,3.294h-4.113   L66.872,32.98z M37.623,24.2v-1.835h29.054V24.2c0,0.488-0.032,0.967-0.061,1.376c-0.22,2.984-1.159,5.841-2.716,8.263   c-1.545,2.414-4.12,5.146-6.535,6.317h-9.599C41.48,37.75,37.623,30.809,37.623,24.2z M42.811,42.893h8.249L51.044,59.94   c-0.58,1.564-2.184,2.615-3.992,2.615c-2.378,0-4.241-1.631-4.241-3.713V42.893z M32.382,42.893h8.248v15.84   c0,2.087-1.912,3.85-4.174,3.85c-2.247,0-4.074-1.727-4.074-3.85V42.893z M22.448,42.893H30.2v15.84   c-0.102,2.106-1.877,3.876-3.876,3.876c-2.137,0-3.875-1.738-3.875-3.876V42.893z M7.429,57.182c0.53,0,0.962,0.432,0.962,0.962   s-0.432,0.962-0.962,0.962s-0.962-0.432-0.962-0.962S6.899,57.182,7.429,57.182z"/><path d="M72.401,66.714H31.9v25.447h15.867v-8.211h24.634V66.714z M45.585,89.98H34.081V68.896h11.504V89.98z M70.219,81.769   H47.767V68.896h22.453V81.769z"/><path d="M43.661,70.821h-7.656v10.393h7.656V70.821z M41.48,79.032h-3.293v-6.029h3.293V79.032z"/><path d="M40.629,25.178c0.059,3.608,1.383,7.004,3.75,9.612l1.59-1.495c-1.986-2.203-3.101-5.067-3.158-8.117H40.629z"/><rect x="46.954" y="9.207" width="2.182" height="7.712"/><rect x="51.06" y="5.101" width="2.182" height="10.448"/><rect x="55.165" y="9.207" width="2.182" height="7.712"/><rect x="49.714" y="92.794" width="2.237" height="2.027"/><rect x="56.556" y="92.794" width="2.237" height="2.027"/><rect x="63.399" y="92.794" width="2.237" height="2.027"/><rect x="70.242" y="92.794" width="2.237" height="2.027"/><rect x="77.085" y="92.794" width="2.237" height="2.027"/><rect x="36.028" y="84.583" width="2.237" height="2.027"/><rect x="54.389" y="70.568" transform="matrix(0.5999 0.8001 -0.8001 0.5999 81.1991 -14.8834)" width="2.182" height="6.343"/><rect x="54.361" y="74.701" transform="matrix(-0.8 0.6 -0.6 -0.8 155.1935 99.8512)" width="13.186" height="2.182"/><path d="M18.867,74.739c0-4.351-2.97-7.891-6.621-7.891s-6.621,3.54-6.621,7.891s2.97,7.891,6.621,7.891   S18.867,79.09,18.867,74.739z M11.36,71.436c0.156-0.665,0.504-1.26,0.958-1.633c0.216-0.178,0.654-0.463,1.152-0.345   c0.299,0.07,0.609,0.089,0.919,0.067c1.471,0.987,2.478,2.952,2.478,5.214c0,2.068-0.842,3.887-2.11,4.938   c0.045-0.14,0.099-0.276,0.133-0.422c0.595-2.543-0.953-3.922-2.083-4.928C11.652,73.299,11.063,72.704,11.36,71.436z    M11.729,80.591c-2.305-0.329-4.104-2.826-4.104-5.851c0-2.171,0.928-4.066,2.303-5.088c-0.223,0.411-0.405,0.854-0.516,1.329   c-0.581,2.485,0.948,3.846,2.064,4.84c1.176,1.048,1.775,1.656,1.466,2.979c-0.156,0.666-0.501,1.255-0.962,1.629   C11.91,80.489,11.819,80.539,11.729,80.591z"/><polygon points="28.33,58.09 24.16,58.09 26.245,60.846  "/><polygon points="38.722,58.09 34.552,58.09 36.637,60.846  "/><polygon points="49.113,58.09 44.943,58.09 47.028,60.846  "/><polygon points="59.505,58.09 55.335,58.09 57.42,60.846  "/><polygon points="69.897,58.09 65.727,58.09 67.812,60.846  "/><polygon points="80.289,58.09 76.119,58.09 78.204,60.846  "/></g><text x="0" y="115" fill="#000000" font-size="5px" font-weight="bold" font-family="'Helvetica Neue', Helvetica, Arial-Unicode, Arial, Sans-serif">Created by Oksana Latysheva</text><text x="0" y="120" fill="#000000" font-size="5px" font-weight="bold" font-family="'Helvetica Neue', Helvetica, Arial-Unicode, Arial, Sans-serif">from the Noun Project</text></svg>