<svg xmlns="http://www.w3.org/2000/svg" xmlns:xlink="http://www.w3.org/1999/xlink" version="1.1" x="0px" y="0px" viewBox="0 0 100 125" style="enable-background:new 0 0 100 100;" xml:space="preserve"><style type="text/css">
	.st0{fill:#1D1D1B;}
</style><g><path d="M89.6455078,17.8552895H72.8994141V15.113102h12.5263672c2.3588867,0,4.277832-1.9189453,4.277832-4.2773438V8.1736488   c0-2.3593745-1.9189453-4.2783198-4.277832-4.2783198H57.3735352c-2.3588867,0-4.2783203,1.9189453-4.2783203,4.2783198v2.6621094   c0,2.3583984,1.9194336,4.2773438,4.2783203,4.2773438h12.5258789v2.7421875H43.7856445V8.559391   c0-0.5664058-0.3183594-1.0839839-0.8237305-1.3388667c-0.5053711-0.2568359-1.1113281-0.2050781-1.5664062,0.1318359   l-2.4677734,1.8193355l-2.4677734-1.8193355c-0.5292969-0.390625-1.2509766-0.390625-1.7802734,0l-2.4677734,1.8193355   l-2.4677734-1.8193355c-0.5292969-0.390625-1.2509766-0.390625-1.7802734,0l-2.4677734,1.8193355l-2.4677734-1.8193355   c-0.4555664-0.3359375-1.0610352-0.3867188-1.5664062-0.1318359s-0.8237305,0.7724609-0.8237305,1.3388667v9.2958984h-8.2109375   c-3.0463867,0-5.5249023,2.4785156-5.5249023,5.5253906v57.5000038v0.0878906v7.5576172   c0,3.5878906,2.9189453,6.5068359,6.5068359,6.5068359h75.2543945c3.5878906,0,6.5068359-2.9189453,6.5068359-6.5068359v-7.5576172   v-0.0878906V23.3806801C95.1704102,20.3338051,92.6918945,17.8552895,89.6455078,17.8552895z M56.0952148,10.8357582V8.1736488   c0-0.7050776,0.5732422-1.2783198,1.2783203-1.2783198h28.0522461c0.7045898,0,1.277832,0.5732422,1.277832,1.2783198v2.6621094   c0,0.7041016-0.5732422,1.2773438-1.277832,1.2773438H57.3735352C56.668457,12.113102,56.0952148,11.5398598,56.0952148,10.8357582   z M9.9023438,78.2390823h82.2680664v1.1416016H9.9023438V78.2390823z M23.6381836,11.5291176l0.9677734,0.7128906   c0.5292969,0.390625,1.2509766,0.390625,1.7802734,0l2.4677734-1.8193359l2.4677734,1.8193359   c0.5292969,0.390625,1.2509766,0.390625,1.7802734,0l2.4677734-1.8193359l2.4677734,1.8193359   c0.5292969,0.390625,1.2509766,0.390625,1.7802734,0l0.9677734-0.7128906v20.6503906c0,0.828125,0.6713867,1.5,1.5,1.5   s1.5-0.671875,1.5-1.5v-1.8786011c0.9334106,0.12146,1.6591797,0.9125366,1.6591797,1.8786011   c0,1.0498047-0.8540039,1.9042969-1.9038086,1.9042969H20.8823242c-1.0498047,0-1.9038086-0.8544922-1.9038086-1.9042969   c0-0.9661865,0.7260132-1.7573853,1.659668-1.8786621v1.8786621c0,0.828125,0.6713867,1.5,1.5,1.5s1.5-0.671875,1.5-1.5V11.5291176   z M12.4272461,20.8552895h8.2109375v6.4455566c-2.5886841,0.130249-4.659668,2.2581787-4.659668,4.8786621   c0,2.7041016,2.199707,4.9042969,4.9038086,4.9042969h22.6586914c2.7041016,0,4.9038086-2.2001953,4.9038086-4.9042969   c0-2.6203003-2.0707397-4.7481689-4.6591797-4.8786011v-6.4456177h45.8598633c1.3920898,0,2.5249023,1.1328125,2.5249023,2.5253906   v51.8584023H9.9023438V23.3806801C9.9023438,21.988102,11.0351562,20.8552895,12.4272461,20.8552895z M92.1704102,88.5261917   c0,1.9335938-1.5732422,3.5068359-3.5068359,3.5068359H13.4091797c-1.9335938,0-3.5068359-1.5732422-3.5068359-3.5068359   v-6.1455078h82.2680664V88.5261917z"/><path d="M18.1669922,50.9578285h6.2919922c0.8286133,0,1.5-0.671875,1.5-1.5v-5.2099609c0-0.828125-0.6713867-1.5-1.5-1.5   h-6.2919922c-0.8286133,0-1.5,0.671875-1.5,1.5v5.2099609C16.6669922,50.2859535,17.3383789,50.9578285,18.1669922,50.9578285z    M19.6669922,45.7478676h3.2919922v2.2099609h-3.2919922V45.7478676z"/><path d="M29.409668,50.9578285h6.2919922c0.8286133,0,1.5-0.671875,1.5-1.5v-5.2099609c0-0.828125-0.6713867-1.5-1.5-1.5H29.409668   c-0.8286133,0-1.5,0.671875-1.5,1.5v5.2099609C27.909668,50.2859535,28.5810547,50.9578285,29.409668,50.9578285z    M30.909668,45.7478676h3.2919922v2.2099609H30.909668V45.7478676z"/><path d="M40.652832,50.9578285h6.2919922c0.8286133,0,1.5-0.671875,1.5-1.5v-5.2099609c0-0.828125-0.6713867-1.5-1.5-1.5H40.652832   c-0.8286133,0-1.5,0.671875-1.5,1.5v5.2099609C39.152832,50.2859535,39.8242188,50.9578285,40.652832,50.9578285z    M42.152832,45.7478676h3.2919922v2.2099609H42.152832V45.7478676z"/><path d="M83.6650391,42.7478676h-17.534668c-0.8286133,0-1.5,0.671875-1.5,1.5v5.2099609c0,0.828125,0.6713867,1.5,1.5,1.5   h17.534668c0.8286133,0,1.5-0.671875,1.5-1.5v-5.2099609C85.1650391,43.4197426,84.4936523,42.7478676,83.6650391,42.7478676z    M82.1650391,47.9578285h-14.534668v-2.2099609h14.534668V47.9578285z"/><path d="M54.5952148,39.3855629h29.0698242c0.8286133,0,1.5-0.671875,1.5-1.5V25.9910316c0-0.828125-0.6713867-1.5-1.5-1.5   H54.5952148c-0.8286133,0-1.5,0.671875-1.5,1.5v11.8945312C53.0952148,38.7136879,53.7666016,39.3855629,54.5952148,39.3855629z    M56.0952148,27.4910316h26.0698242v8.8945312H56.0952148V27.4910316z"/><path d="M18.1669922,60.5242348h6.2919922c0.8286133,0,1.5-0.671875,1.5-1.5v-5.2099609c0-0.828125-0.6713867-1.5-1.5-1.5   h-6.2919922c-0.8286133,0-1.5,0.671875-1.5,1.5v5.2099609C16.6669922,59.8523598,17.3383789,60.5242348,18.1669922,60.5242348z    M19.6669922,55.3142738h3.2919922v2.2099609h-3.2919922V55.3142738z"/><path d="M29.409668,60.5242348h6.2919922c0.8286133,0,1.5-0.671875,1.5-1.5v-5.2099609c0-0.828125-0.6713867-1.5-1.5-1.5H29.409668   c-0.8286133,0-1.5,0.671875-1.5,1.5v5.2099609C27.909668,59.8523598,28.5810547,60.5242348,29.409668,60.5242348z    M30.909668,55.3142738h3.2919922v2.2099609H30.909668V55.3142738z"/><path d="M40.652832,60.5242348h6.2919922c0.8286133,0,1.5-0.671875,1.5-1.5v-5.2099609c0-0.828125-0.6713867-1.5-1.5-1.5H40.652832   c-0.8286133,0-1.5,0.671875-1.5,1.5v5.2099609C39.152832,59.8523598,39.8242188,60.5242348,40.652832,60.5242348z    M42.152832,55.3142738h3.2919922v2.2099609H42.152832V55.3142738z"/><path d="M18.1669922,70.0906448h6.2919922c0.8286133,0,1.5-0.671875,1.5-1.5v-5.2099648c0-0.828125-0.6713867-1.5-1.5-1.5   h-6.2919922c-0.8286133,0-1.5,0.671875-1.5,1.5v5.2099648C16.6669922,69.4187698,17.3383789,70.0906448,18.1669922,70.0906448z    M19.6669922,64.8806839h3.2919922v2.2099609h-3.2919922V64.8806839z"/><path d="M29.409668,70.0906448h6.2919922c0.8286133,0,1.5-0.671875,1.5-1.5v-5.2099648c0-0.828125-0.6713867-1.5-1.5-1.5H29.409668   c-0.8286133,0-1.5,0.671875-1.5,1.5v5.2099648C27.909668,69.4187698,28.5810547,70.0906448,29.409668,70.0906448z    M30.909668,64.8806839h3.2919922v2.2099609H30.909668V64.8806839z"/><path d="M40.652832,70.0906448h6.2919922c0.8286133,0,1.5-0.671875,1.5-1.5v-5.2099648c0-0.828125-0.6713867-1.5-1.5-1.5H40.652832   c-0.8286133,0-1.5,0.671875-1.5,1.5v5.2099648C39.152832,69.4187698,39.8242188,70.0906448,40.652832,70.0906448z    M42.152832,64.8806839h3.2919922v2.2099609H42.152832V64.8806839z"/><path d="M72.4223633,52.3142738h-6.2919922c-0.8286133,0-1.5,0.671875-1.5,1.5v5.2099609c0,0.828125,0.6713867,1.5,1.5,1.5   h6.2919922c0.8286133,0,1.5-0.671875,1.5-1.5v-5.2099609C73.9223633,52.9861488,73.2509766,52.3142738,72.4223633,52.3142738z    M70.9223633,57.5242348h-3.2919922v-2.2099609h3.2919922V57.5242348z"/><path d="M83.6650391,52.3142738h-6.2919922c-0.8286133,0-1.5,0.671875-1.5,1.5v5.2099609c0,0.828125,0.6713867,1.5,1.5,1.5   h6.2919922c0.8286133,0,1.5-0.671875,1.5-1.5v-5.2099609C85.1650391,52.9861488,84.4936523,52.3142738,83.6650391,52.3142738z    M82.1650391,57.5242348h-3.2919922v-2.2099609h3.2919922V57.5242348z"/><path d="M72.4223633,61.8806801h-6.2919922c-0.8286133,0-1.5,0.671875-1.5,1.5v5.2099648c0,0.828125,0.6713867,1.5,1.5,1.5   h6.2919922c0.8286133,0,1.5-0.671875,1.5-1.5v-5.2099648C73.9223633,62.5525551,73.2509766,61.8806801,72.4223633,61.8806801z    M70.9223633,67.0906448h-3.2919922v-2.2099609h3.2919922V67.0906448z"/><path d="M83.6650391,61.8806801h-6.2919922c-0.8286133,0-1.5,0.671875-1.5,1.5v5.2099648c0,0.828125,0.6713867,1.5,1.5,1.5   h6.2919922c0.8286133,0,1.5-0.671875,1.5-1.5v-5.2099648C85.1650391,62.5525551,84.4936523,61.8806801,83.6650391,61.8806801z    M82.1650391,67.0906448h-3.2919922v-2.2099609h3.2919922V67.0906448z"/><path d="M26.8310547,19.7547035h10.9335938c0.8286133,0,1.5-0.671875,1.5-1.5s-0.6713867-1.5-1.5-1.5H26.8310547   c-0.8286133,0-1.5,0.671875-1.5,1.5S26.0024414,19.7547035,26.8310547,19.7547035z"/><path d="M26.8310547,24.4998207h10.9335938c0.8286133,0,1.5-0.671875,1.5-1.5s-0.6713867-1.5-1.5-1.5H26.8310547   c-0.8286133,0-1.5,0.671875-1.5,1.5S26.0024414,24.4998207,26.8310547,24.4998207z"/><path d="M26.8310547,29.2449379h10.9335938c0.8286133,0,1.5-0.671875,1.5-1.5s-0.6713867-1.5-1.5-1.5H26.8310547   c-0.8286133,0-1.5,0.671875-1.5,1.5S26.0024414,29.2449379,26.8310547,29.2449379z"/><path d="M49.6264648,88.7068558h2.9912109c0.8286133,0,1.5-0.671875,1.5-1.5s-0.6713867-1.5-1.5-1.5h-2.9912109   c-0.8286133,0-1.5,0.671875-1.5,1.5S48.7978516,88.7068558,49.6264648,88.7068558z"/></g><text x="0" y="115" fill="#000000" font-size="5px" font-weight="bold" font-family="'Helvetica Neue', Helvetica, Arial-Unicode, Arial, Sans-serif">Created by Artem  Kovyazin</text><text x="0" y="120" fill="#000000" font-size="5px" font-weight="bold" font-family="'Helvetica Neue', Helvetica, Arial-Unicode, Arial, Sans-serif">from the Noun Project</text></svg>