<svg xmlns="http://www.w3.org/2000/svg" xmlns:xlink="http://www.w3.org/1999/xlink" version="1.0" x="0px" y="0px" viewBox="0 0 90 112.5" enable-background="new 0 0 90 90" xml:space="preserve"><path fill="#000000" d="M44.9,80c19.4,0,35-15.6,35-35s-15.6-35-35-35s-35,15.6-35,35C9.9,64.4,25.6,80,44.9,80z M31.4,48.1  l13.8-16.2l13.7,16.2c0.8,0.9,0.7,2.3-0.2,3.1c-0.9,0.8-2.3,0.7-3.1-0.2L45.2,38.7L34.8,50.9c-0.8,0.9-2.2,1-3.1,0.2  C30.7,50.4,30.6,48.9,31.4,48.1z"/><text x="0" y="105" fill="#000000" font-size="5px" font-weight="bold" font-family="'Helvetica Neue', Helvetica, Arial-Unicode, Arial, Sans-serif">Created by Antonio Petraglia</text><text x="0" y="110" fill="#000000" font-size="5px" font-weight="bold" font-family="'Helvetica Neue', Helvetica, Arial-Unicode, Arial, Sans-serif">from the Noun Project</text></svg>