<svg xmlns="http://www.w3.org/2000/svg" xmlns:xlink="http://www.w3.org/1999/xlink" version="1.0" x="0px" y="0px" viewBox="0 0 90 112.5" enable-background="new 0 0 90 90" xml:space="preserve"><g><path fill="#000000" d="M44.7,58.1L31,41.9c-0.8-0.9-0.7-2.3,0.2-3.1c0.9-0.8,2.3-0.7,3.1,0.2l10.4,12.3l10.4-12.3   c0.8-0.9,2.2-1,3.1-0.2c0.9,0.8,1,2.2,0.2,3.1L44.7,58.1z"/><path fill="#000000" d="M44.9,80c-19.3,0-35-15.8-35-35s15.8-35,35-35s35,15.8,35,35S64.2,80,44.9,80z M44.9,14.4   c-16.9,0-30.6,13.8-30.6,30.6s13.8,30.6,30.6,30.6S75.6,61.9,75.6,45S61.8,14.4,44.9,14.4z"/></g><text x="0" y="105" fill="#000000" font-size="5px" font-weight="bold" font-family="'Helvetica Neue', Helvetica, Arial-Unicode, Arial, Sans-serif">Created by Antonio Petraglia</text><text x="0" y="110" fill="#000000" font-size="5px" font-weight="bold" font-family="'Helvetica Neue', Helvetica, Arial-Unicode, Arial, Sans-serif">from the Noun Project</text></svg>