<svg xmlns="http://www.w3.org/2000/svg" xmlns:xlink="http://www.w3.org/1999/xlink" version="1.0" x="0px" y="0px" viewBox="0 0 90 112.5" enable-background="new 0 0 90 90" xml:space="preserve"><path fill="#000000" d="M44.9,10c-19.4,0-35,15.6-35,35s15.6,35,35,35s35-15.6,35-35S64.3,10,44.9,10z M58.5,41.9L44.7,58.1L31,41.9  c-0.8-0.9-0.7-2.3,0.2-3.1c0.9-0.8,2.3-0.7,3.1,0.2l10.4,12.3l10.4-12.3c0.8-0.9,2.2-1,3.1-0.2C59.2,39.6,59.3,41.1,58.5,41.9z"/><text x="0" y="105" fill="#000000" font-size="5px" font-weight="bold" font-family="'Helvetica Neue', Helvetica, Arial-Unicode, Arial, Sans-serif">Created by Antonio Petraglia</text><text x="0" y="110" fill="#000000" font-size="5px" font-weight="bold" font-family="'Helvetica Neue', Helvetica, Arial-Unicode, Arial, Sans-serif">from the Noun Project</text></svg>