<svg xmlns="http://www.w3.org/2000/svg" xmlns:xlink="http://www.w3.org/1999/xlink" version="1.0" x="0px" y="0px" viewBox="0 0 90 112.5" enable-background="new 0 0 90 90" xml:space="preserve"><g><path fill="#000000" d="M45.2,31.9l13.7,16.2c0.8,0.9,0.7,2.3-0.2,3.1c-0.9,0.8-2.3,0.7-3.1-0.2L45.2,38.7L34.8,50.9   c-0.8,0.9-2.2,1-3.1,0.2c-0.9-0.8-1-2.2-0.2-3.1L45.2,31.9z"/><path fill="#000000" d="M44.9,10c19.3,0,35,15.8,35,35s-15.8,35-35,35s-35-15.8-35-35S25.7,10,44.9,10z M44.9,75.6   c16.9,0,30.6-13.8,30.6-30.6S61.8,14.4,44.9,14.4S14.3,28.2,14.3,45S28.1,75.6,44.9,75.6z"/></g><text x="0" y="105" fill="#000000" font-size="5px" font-weight="bold" font-family="'Helvetica Neue', Helvetica, Arial-Unicode, Arial, Sans-serif">Created by Antonio Petraglia</text><text x="0" y="110" fill="#000000" font-size="5px" font-weight="bold" font-family="'Helvetica Neue', Helvetica, Arial-Unicode, Arial, Sans-serif">from the Noun Project</text></svg>