<svg xmlns="http://www.w3.org/2000/svg" xmlns:xlink="http://www.w3.org/1999/xlink" version="1.0" x="0px" y="0px" viewBox="0 0 90 112.5" enable-background="new 0 0 90 90" xml:space="preserve"><g><path fill="#000000" d="M58.1,45.2L41.9,58.9c-0.9,0.8-2.3,0.7-3.1-0.2c-0.8-0.9-0.7-2.3,0.2-3.1l12.3-10.4L39,34.8   c-0.9-0.8-1-2.2-0.2-3.1c0.8-0.9,2.2-1,3.1-0.2L58.1,45.2z"/><path fill="#000000" d="M80,45c0,19.3-15.8,35-35,35s-35-15.8-35-35s15.8-35,35-35S80,25.7,80,45z M14.3,45   c0,16.9,13.8,30.6,30.6,30.6S75.6,61.9,75.6,45S61.8,14.4,44.9,14.4S14.3,28.2,14.3,45z"/></g><text x="0" y="105" fill="#000000" font-size="5px" font-weight="bold" font-family="'Helvetica Neue', Helvetica, Arial-Unicode, Arial, Sans-serif">Created by Antonio Petraglia</text><text x="0" y="110" fill="#000000" font-size="5px" font-weight="bold" font-family="'Helvetica Neue', Helvetica, Arial-Unicode, Arial, Sans-serif">from the Noun Project</text></svg>