<svg xmlns="http://www.w3.org/2000/svg" xmlns:xlink="http://www.w3.org/1999/xlink" version="1.2" baseProfile="tiny" x="0px" y="0px" viewBox="0 0 128 160" overflow="scroll" xml:space="preserve"><title>Artboard 5</title><g><path d="M122,10h-5.2c-1-5.7-5.9-10-11.8-10H23c-5.9,0-10.9,4.3-11.8,10H6c-3.3,0-6,2.7-6,6v5c0,3.3,2.7,6,6,6h5v101h14.8l5-5H34   l4-4h52l4,4h3.2l5,5H117V27h3v21h4V26.6c2.3-0.8,4-3,4-5.6v-5C128,12.7,125.3,10,122,10z M34,98c-1.1,0-2-0.9-2-2v-1   c0-0.9,0.6-1.6,1.4-1.9c0,0,0,0,0,0C33.6,93,33.8,93,34,93h26c0.9,1.2,2.3,2,4,2s3.1-0.8,4-2h27c1.1,0,2,0.9,2,2v1c0,1.1-0.9,2-2,2   h-2.8H35.8H34z M25,20c0-1.1,0.9-2,2-2h15c1.1,0,2,0.9,2,2s-0.9,2-2,2H27C25.9,22,25,21.1,25,20z M55,21c0-5,4-9,9-9c5,0,9,4,9,9   s-4,9-9,9C59,30,55,26,55,21z M85.2,15.3c2.2-1.8,5.3-1.8,7.5,0l1.3,1l1.3-1c2.6-2.1,6.4-1.7,8.4,0.9c2.1,2.6,1.7,6.4-0.9,8.4   c-1.1,0.9-2.4,1.3-3.8,1.3c0,0,0,0,0,0c-1.4,0-2.7-0.5-3.8-1.3l-1.3-1l-1.3,1c-2.6,2.1-6.4,1.7-8.4-0.9   C82.2,21.2,82.7,17.4,85.2,15.3z M71.4,56.9c-0.5-1.1-1.2-2.1-2.1-2.9h4.4C73.2,55.2,72.4,56.2,71.4,56.9z M64,64c-2.2,0-4-1.8-4-4   s1.8-4,4-4c2.2,0,4,1.8,4,4S66.2,64,64,64z M56.6,56.9c-1-0.7-1.8-1.7-2.3-2.9h4.4C57.8,54.8,57.1,55.8,56.6,56.9z M50.5,55   c0.9,2.8,2.9,5,5.6,6.2c0.3,2,1.4,3.8,2.9,5V89H34.7c-0.1-12.2,5.9-29.3,7.7-34H50.5z M94,61c5,0,9,6.7,9,15   c0,6.1-2.2,11.3-5.3,13.7c-0.1-0.1-0.3-0.1-0.4-0.2c0.2-9.2-2.9-20.7-5.4-28.5H94z M93.3,89H69V66.2c1.5-1.2,2.6-3,2.9-5   c2.7-1.1,4.8-3.4,5.6-6.2h8.1C87.4,59.7,93.5,76.8,93.3,89z M78,48c0,1.1-0.9,2-2,2H52c-1.1,0-2-0.9-2-2v-8.5   c2.5,1,5.2,1.5,7.9,1.5c0,0,0,0,0,0h12.3c2.7,0,5.4-0.5,7.9-1.5V48z M6,23c-1.1,0-2-0.9-2-2v-5c0-1.1,0.9-2,2-2h5v2H7v4h4v3H6z    M15,32h8v5.2l-4,4V48h20v-6.8l-4-4V32h0.1c1.5,0,3,0.4,4.3,1.3l6.6,4.2c0,0,0,0,0,0V48c0,1.1,0.3,2.1,0.8,3H41   c-0.8,0-1.6,0.5-1.9,1.3c-0.4,0.9-9,22.7-8.4,37.7c-1.6,1.1-2.7,2.9-2.7,5v1c0,3.3,2.7,6,6,6h0.9c2.2,2.1,5.1,3.2,8.1,3H15V32z    M113,105H85.8c2.7-0.1,5.3-1.1,7.3-3H95c1.9,0,3.6-0.9,4.7-2.3C106.8,96.4,112,87,112,76c0-13.8-8.1-25-18-25h-7h-5.8   c0.5-0.9,0.8-1.9,0.8-3V37.5c0,0,0,0,0,0l6.6-4.2c1.3-0.8,2.8-1.3,4.3-1.3c0,0,0,0,0,0H113V105z M124,21c0,1.1-0.9,2-2,2h-5v-9h5   c1.1,0,2,0.9,2,2V21z"/><path d="M62,26c0.5,0,1-0.2,1.4-0.6l5.5-5.5c0.8-0.8,0.8-2,0-2.8c-0.8-0.8-2-0.8-2.8,0l-5.5,5.5c-0.8,0.8-0.8,2,0,2.8   C61,25.8,61.5,26,62,26z"/><circle cx="89" cy="20" r="2"/><circle cx="99" cy="20" r="2"/></g><text x="0" y="143" fill="#000000" font-size="5px" font-weight="bold" font-family="'Helvetica Neue', Helvetica, Arial-Unicode, Arial, Sans-serif">Created by Juraj Sedlák</text><text x="0" y="148" fill="#000000" font-size="5px" font-weight="bold" font-family="'Helvetica Neue', Helvetica, Arial-Unicode, Arial, Sans-serif">from the Noun Project</text></svg>