<svg xmlns="http://www.w3.org/2000/svg" xmlns:xlink="http://www.w3.org/1999/xlink" viewBox="0 0 55 75" version="1.1" x="0px" y="0px"><title>85 -Expresso Machine- (Outline)</title><desc>Created with Sketch.</desc><g stroke="none" stroke-width="1" fill="none" fill-rule="evenodd"><g transform="translate(-605.000000, -1286.000000)" fill="#000000"><g transform="translate(605.000000, 1286.000000)"><path d="M2.1724,55.9987 C2.5854,57.1627 3.6974,57.9987 5.0014,57.9987 L45.0014,57.9987 C46.3044,57.9987 47.4174,57.1627 47.8304,55.9987 L2.1724,55.9987 Z M45.0014,59.9987 L5.0014,59.9987 C2.2444,59.9987 0.0014,57.7557 0.0014,54.9987 C0.0014,54.4457 0.4484,53.9987 1.0014,53.9987 L49.0014,53.9987 C49.5534,53.9987 50.0014,54.4457 50.0014,54.9987 C50.0014,57.7557 47.7574,59.9987 45.0014,59.9987 L45.0014,59.9987 Z"/><path d="M25.001,5.9987 C21.692,5.9987 19.001,8.6897 19.001,11.9987 C19.001,15.3077 21.692,17.9987 25.001,17.9987 C28.31,17.9987 31.001,15.3077 31.001,11.9987 C31.001,8.6897 28.31,5.9987 25.001,5.9987 M25.001,19.9987 C20.59,19.9987 17.001,16.4097 17.001,11.9987 C17.001,7.5877 20.59,3.9987 25.001,3.9987 C29.412,3.9987 33.001,7.5877 33.001,11.9987 C33.001,16.4097 29.412,19.9987 25.001,19.9987"/><path d="M28.001,12.9987 C27.449,12.9987 27.001,12.5517 27.001,11.9987 C27.001,10.8957 26.104,9.9987 25.001,9.9987 C24.449,9.9987 24.001,9.5517 24.001,8.9987 C24.001,8.4457 24.449,7.9987 25.001,7.9987 C27.207,7.9987 29.001,9.7927 29.001,11.9987 C29.001,12.5517 28.553,12.9987 28.001,12.9987"/><path d="M25.001,15.9987 C22.795,15.9987 21.001,14.2047 21.001,11.9987 C21.001,11.4457 21.449,10.9987 22.001,10.9987 C22.553,10.9987 23.001,11.4457 23.001,11.9987 C23.001,13.1017 23.898,13.9987 25.001,13.9987 C25.553,13.9987 26.001,14.4457 26.001,14.9987 C26.001,15.5517 25.553,15.9987 25.001,15.9987"/><path d="M10.001,10.9987 L10.001,12.9987 L12.002,12.9987 L12.001,10.9987 L10.001,10.9987 Z M12.001,14.9987 L10.001,14.9987 C8.898,14.9987 8.001,14.1017 8.001,12.9987 L8.001,10.9987 C8.001,9.8957 8.898,8.9987 10.001,8.9987 L12.001,8.9987 C13.104,8.9987 14.001,9.8957 14.001,10.9987 L14.001,12.9987 C14.001,14.1017 13.104,14.9987 12.001,14.9987 L12.001,14.9987 Z"/><path d="M38.001,10.9987 L38.001,12.9987 L40.002,12.9987 L40.001,10.9987 L38.001,10.9987 Z M40.001,14.9987 L38.001,14.9987 C36.898,14.9987 36.001,14.1017 36.001,12.9987 L36.001,10.9987 C36.001,9.8957 36.898,8.9987 38.001,8.9987 L40.001,8.9987 C41.104,8.9987 42.001,9.8957 42.001,10.9987 L42.001,12.9987 C42.001,14.1017 41.104,14.9987 40.001,14.9987 L40.001,14.9987 Z"/><path d="M36.001,23.9987 C35.45,23.9987 35.001,24.4467 35.001,24.9987 L35.001,26.9987 C35.001,27.5507 35.45,27.9987 36.001,27.9987 L52.001,27.9987 C52.553,27.9987 53.001,27.5507 53.001,26.9987 L53.001,24.9987 C53.001,24.4467 52.553,23.9987 52.001,23.9987 L36.001,23.9987 Z M52.001,29.9987 L36.001,29.9987 C34.347,29.9987 33.001,28.6527 33.001,26.9987 L33.001,24.9987 C33.001,23.3447 34.347,21.9987 36.001,21.9987 L52.001,21.9987 C53.655,21.9987 55.001,23.3447 55.001,24.9987 L55.001,26.9987 C55.001,28.6527 53.655,29.9987 52.001,29.9987 L52.001,29.9987 Z"/><path d="M23.001,34.9987 C22.449,34.9987 22.001,34.5517 22.001,33.9987 L22.001,30.9987 C22.001,30.4457 22.449,29.9987 23.001,29.9987 C23.553,29.9987 24.001,30.4457 24.001,30.9987 L24.001,33.9987 C24.001,34.5517 23.553,34.9987 23.001,34.9987"/><path d="M27.001,34.9987 C26.449,34.9987 26.001,34.5517 26.001,33.9987 L26.001,30.9987 C26.001,30.4457 26.449,29.9987 27.001,29.9987 C27.553,29.9987 28.001,30.4457 28.001,30.9987 L28.001,33.9987 C28.001,34.5517 27.553,34.9987 27.001,34.9987"/><path d="M34.2783,28.9987 L29.0013,28.9987 C28.4483,28.9987 28.0013,28.5517 28.0013,27.9987 L28.0013,23.9987 C28.0013,23.4457 28.4483,22.9987 29.0013,22.9987 L34.2783,22.9987 C34.8303,22.9987 35.2783,23.4457 35.2783,23.9987 C35.2783,24.5517 34.8303,24.9987 34.2783,24.9987 L30.0013,24.9987 L30.0013,26.9987 L34.2783,26.9987 C34.8303,26.9987 35.2783,27.4457 35.2783,27.9987 C35.2783,28.5517 34.8303,28.9987 34.2783,28.9987"/><path d="M19.001,40.9987 L19.001,49.6597 C19.001,52.0527 20.947,53.9987 23.34,53.9987 L26.662,53.9987 C29.055,53.9987 31.001,52.0527 31.001,49.6597 L31.001,40.9987 L19.001,40.9987 Z M26.662,55.9987 L23.34,55.9987 C19.845,55.9987 17.001,53.1547 17.001,49.6597 L17.001,40.9987 C17.001,39.8957 17.898,38.9987 19.001,38.9987 L31.001,38.9987 C32.104,38.9987 33.001,39.8957 33.001,40.9987 L33.001,49.6597 C33.001,53.1547 30.157,55.9987 26.662,55.9987 L26.662,55.9987 Z"/><path d="M33.001,43.1257 L33.001,49.6597 C33.001,50.0777 32.958,50.4927 32.872,50.9027 C34.66,50.5047 36.001,48.9047 36.001,46.9987 C36.001,45.1387 34.724,43.5697 33.001,43.1257 M32.001,52.9987 C31.828,52.9987 31.66,52.9797 31.493,52.9557 L31.359,52.9387 C31.037,52.9037 30.752,52.7147 30.595,52.4317 C30.438,52.1477 30.427,51.8077 30.566,51.5147 C30.855,50.9097 31.001,50.2857 31.001,49.6597 L31.001,41.9987 C31.001,41.4457 31.449,40.9987 32.001,40.9987 C35.31,40.9987 38.001,43.6897 38.001,46.9987 C38.001,50.3077 35.31,52.9987 32.001,52.9987"/><path d="M3.001,5.9987 C2.45,5.9987 2.001,6.4467 2.001,6.9987 L2.001,16.9987 C2.001,17.5507 2.45,17.9987 3.001,17.9987 L8.453,17.9987 C12.403,17.9987 16.513,19.0137 20.668,21.0137 C23.383,22.3217 26.619,22.3217 29.334,21.0137 C33.489,19.0137 37.599,17.9987 41.549,17.9987 L47.001,17.9987 C47.553,17.9987 48.001,17.5507 48.001,16.9987 L48.001,6.9987 C48.001,6.4467 47.553,5.9987 47.001,5.9987 L41.549,5.9987 C37.599,5.9987 33.489,4.9837 29.334,2.9837 C26.619,1.6757 23.383,1.6757 20.668,2.9837 C16.513,4.9837 12.403,5.9987 8.453,5.9987 L3.001,5.9987 Z M25.001,23.9987 C23.181,23.9987 21.431,23.6007 19.8,22.8157 C15.918,20.9467 12.1,19.9987 8.453,19.9987 L3.001,19.9987 C1.347,19.9987 0.001,18.6527 0.001,16.9987 L0.001,6.9987 C0.001,5.3447 1.347,3.9987 3.001,3.9987 L8.453,3.9987 C12.1,3.9987 15.918,3.0507 19.8,1.1817 C23.062,-0.3873 26.941,-0.3873 30.202,1.1817 C34.084,3.0507 37.902,3.9987 41.549,3.9987 L47.001,3.9987 C48.655,3.9987 50.001,5.3447 50.001,6.9987 L50.001,16.9987 C50.001,18.6527 48.655,19.9987 47.001,19.9987 L41.549,19.9987 C37.902,19.9987 34.084,20.9467 30.202,22.8157 C28.571,23.6007 26.821,23.9987 25.001,23.9987 L25.001,23.9987 Z"/><path d="M22.001,23.6101 L22.001,28.9991 C22.001,29.5501 22.45,29.9991 23.001,29.9991 L27.001,29.9991 C27.552,29.9991 28.001,29.5501 28.001,28.9991 L28.001,23.6101 C26.031,24.1261 23.971,24.1261 22.001,23.6101 M27.001,31.9991 L23.001,31.9991 C21.347,31.9991 20.001,30.6531 20.001,28.9991 L20.001,22.2331 C20.001,21.9031 20.165,21.5931 20.438,21.4071 C20.71,21.2201 21.059,21.1801 21.366,21.3021 C23.726,22.2261 26.276,22.2261 28.636,21.3021 C28.943,21.1801 29.292,21.2201 29.564,21.4071 C29.837,21.5931 30.001,21.9031 30.001,22.2331 L30.001,28.9991 C30.001,30.6531 28.655,31.9991 27.001,31.9991"/><path d="M6.001,53.9987 L44.001,53.9987 L44.001,29.9987 L36.001,29.9987 C34.347,29.9987 33.001,28.6527 33.001,26.9987 L33.001,24.9987 C33.001,23.3447 34.347,21.9987 36.001,21.9987 L44.001,21.9987 L44.001,19.9987 L41.549,19.9987 C37.902,19.9987 34.084,20.9467 30.202,22.8157 C29.81,23.0047 29.402,23.1747 28.988,23.3197 C28.141,23.6177 27.263,23.8197 26.377,23.9207 C25.463,24.0237 24.537,24.0227 23.626,23.9217 C22.739,23.8197 21.861,23.6177 21.016,23.3207 C20.6,23.1747 20.192,23.0047 19.8,22.8157 C15.918,20.9467 12.1,19.9987 8.453,19.9987 L6.001,19.9987 L6.001,53.9987 Z M45.001,55.9987 L5.001,55.9987 C4.449,55.9987 4.001,55.5517 4.001,54.9987 L4.001,18.9987 C4.001,18.4457 4.449,17.9987 5.001,17.9987 L8.453,17.9987 C12.403,17.9987 16.513,19.0137 20.668,21.0137 C20.996,21.1717 21.334,21.3117 21.68,21.4357 C22.383,21.6817 23.114,21.8497 23.852,21.9347 C24.612,22.0197 25.389,22.0207 26.151,21.9337 C26.888,21.8497 27.619,21.6817 28.324,21.4347 C28.668,21.3117 29.006,21.1717 29.334,21.0137 C33.489,19.0137 37.599,17.9987 41.549,17.9987 L45.001,17.9987 C45.554,17.9987 46.001,18.4457 46.001,18.9987 L46.001,22.9987 C46.001,23.5517 45.554,23.9987 45.001,23.9987 L36.001,23.9987 C35.45,23.9987 35.001,24.4467 35.001,24.9987 L35.001,26.9987 C35.001,27.5507 35.45,27.9987 36.001,27.9987 L45.001,27.9987 C45.554,27.9987 46.001,28.4457 46.001,28.9987 L46.001,54.9987 C46.001,55.5517 45.554,55.9987 45.001,55.9987 L45.001,55.9987 Z"/><path d="M10.001,24.9987 L5.001,24.9987 C4.449,24.9987 4.001,24.5517 4.001,23.9987 C4.001,23.4457 4.449,22.9987 5.001,22.9987 L10.001,22.9987 C10.553,22.9987 11.001,23.4457 11.001,23.9987 C11.001,24.5517 10.553,24.9987 10.001,24.9987"/><path d="M10.001,28.9987 L5.001,28.9987 C4.449,28.9987 4.001,28.5517 4.001,27.9987 C4.001,27.4457 4.449,26.9987 5.001,26.9987 L10.001,26.9987 C10.553,26.9987 11.001,27.4457 11.001,27.9987 C11.001,28.5517 10.553,28.9987 10.001,28.9987"/><path d="M10.001,32.9987 L5.001,32.9987 C4.449,32.9987 4.001,32.5517 4.001,31.9987 C4.001,31.4457 4.449,30.9987 5.001,30.9987 L10.001,30.9987 C10.553,30.9987 11.001,31.4457 11.001,31.9987 C11.001,32.5517 10.553,32.9987 10.001,32.9987"/></g></g></g><text x="0" y="75" fill="#000000" font-size="5px" font-weight="bold" font-family="'Helvetica Neue', Helvetica, Arial-Unicode, Arial, Sans-serif">Created by Ben Davis</text><text x="0" y="80" fill="#000000" font-size="5px" font-weight="bold" font-family="'Helvetica Neue', Helvetica, Arial-Unicode, Arial, Sans-serif">from the Noun Project</text></svg>