<svg xmlns="http://www.w3.org/2000/svg" xmlns:xlink="http://www.w3.org/1999/xlink" version="1.1" x="0px" y="0px" viewBox="0 0 100 125" style="enable-background:new 0 0 100 100;" xml:space="preserve"><path d="M56.6,32.9c0-1-0.8-1.8-1.8-1.8H44.5c-1,0-1.8,0.8-1.8,1.8v1.5h13.9V32.9z"/><polygon points="62,58.6 59.6,56.2 57.9,57.9 62,62.1 68.8,55.3 67,53.6 "/><path d="M88.3,23.4l-34.6-20c-2.2-1.3-5-1.3-7.2,0l-34.6,20c-2.2,1.3-3.6,3.7-3.6,6.2v40c0,2.6,1.4,5,3.6,6.2l34.6,20  c1.1,0.6,2.3,1,3.6,1s2.5-0.3,3.6-1l34.6-20c2.2-1.3,3.6-3.7,3.6-6.2v-40C91.9,27.1,90.5,24.7,88.3,23.4z M29.9,67.6  c-1.4,0-2.6-1.1-2.6-2.6V37c0-1.4,1.1-2.6,2.6-2.6h9.9v-1.5c0-2.6,2.1-4.7,4.7-4.7h10.3c2.6,0,4.7,2.1,4.7,4.7v1.5h10  c1.4,0,2.6,1.1,2.6,2.6v11.1c-2.3-2-5.3-3.2-8.6-3.2c-7.2,0-13,5.8-13,13c0,3.8,1.6,7.3,4.3,9.7H29.9z M63.5,68.9  c-6,0-10.9-4.9-10.9-10.9S57.5,47,63.5,47s10.9,4.9,10.9,10.9S69.6,68.9,63.5,68.9z"/><text x="0" y="115" fill="#000000" font-size="5px" font-weight="bold" font-family="'Helvetica Neue', Helvetica, Arial-Unicode, Arial, Sans-serif">Created by Aneeque Ahmed</text><text x="0" y="120" fill="#000000" font-size="5px" font-weight="bold" font-family="'Helvetica Neue', Helvetica, Arial-Unicode, Arial, Sans-serif">from the Noun Project</text></svg>