<svg xmlns="http://www.w3.org/2000/svg" xmlns:xlink="http://www.w3.org/1999/xlink" version="1.1" x="0px" y="0px" viewBox="0 0 100 125" style="enable-background:new 0 0 100 100;" xml:space="preserve"><g><path d="M25,92.4h13.8c2.2,0,4-1.8,4-4V65.2c0-0.6,0.4-1,1-1h12.4c0.6,0,1,0.4,1,1l0,23.2c0,2.2,1.8,4,4,4H75c7.7,0,14-6.3,14-14   V45.9c0-2.8-1.1-5.5-3.2-7.5L56.1,10.1c-3.4-3.4-8.8-3.4-12.3,0L14.2,38.5c-2,1.9-3.1,4.7-3.1,7.4v32.5C11,86.1,17.3,92.4,25,92.4z    M19,45.9c0-0.6,0.3-1.3,0.7-1.7l29.7-28.4c0.3-0.3,0.8-0.3,1.1,0l29.7,28.4c0.5,0.4,0.7,1.1,0.7,1.7v32.5c0,3.3-2.7,6-6,6h-9.8   l0-19.2c0-5-4-9-9-9H43.8c-5,0-9,4-9,9v19.2H25c-3.3,0-6-2.7-6-6V45.9z"/></g><text x="0" y="115" fill="#000000" font-size="5px" font-weight="bold" font-family="'Helvetica Neue', Helvetica, Arial-Unicode, Arial, Sans-serif">Created by Agni</text><text x="0" y="120" fill="#000000" font-size="5px" font-weight="bold" font-family="'Helvetica Neue', Helvetica, Arial-Unicode, Arial, Sans-serif">from the Noun Project</text></svg>