<svg xmlns="http://www.w3.org/2000/svg" xmlns:xlink="http://www.w3.org/1999/xlink" version="1.1" x="0px" y="0px" viewBox="0 0 100 125" enable-background="new 0 0 100 100" xml:space="preserve"><path fill-rule="evenodd" clip-rule="evenodd" d="M79.981,77.625H20.019c-1.689,0-3.058-1.369-3.058-3.058v-1.138  c0-1.689,1.369-3.058,3.058-3.058h5.321c-3.737-5.006-5.981-11.189-5.981-17.917c0-16.612,13.466-30.078,30.078-30.078  c16.611,0,30.077,13.466,30.077,30.078c0,6.728-2.243,12.911-5.981,17.917h6.447c1.689,0,3.058,1.369,3.058,3.058v1.138  C83.04,76.255,81.67,77.625,79.981,77.625z M72.24,52.571c0.065-12.594-10.091-22.855-22.685-22.921  C36.962,29.585,26.7,39.741,26.635,52.335c-0.038,7.324,3.395,13.84,8.744,18.034h28.115C68.781,66.226,72.202,59.812,72.24,52.571z   M33.76,52.966v-1.138c0-1.689,1.369-3.058,3.058-3.058h8.953v-8.954c0-1.689,1.369-3.058,3.058-3.058h1.139  c1.689,0,3.058,1.369,3.058,3.058v8.954h8.954c1.689,0,3.058,1.369,3.058,3.058v1.138c0,1.689-1.369,3.058-3.058,3.058h-8.954v8.954  c0,1.689-1.369,3.058-3.058,3.058H48.83c-1.689,0-3.058-1.369-3.058-3.058v-8.954h-8.953C35.13,56.025,33.76,54.655,33.76,52.966z"/><text x="0" y="115" fill="#000000" font-size="5px" font-weight="bold" font-family="'Helvetica Neue', Helvetica, Arial-Unicode, Arial, Sans-serif">Created by Alex from Capsulink</text><text x="0" y="120" fill="#000000" font-size="5px" font-weight="bold" font-family="'Helvetica Neue', Helvetica, Arial-Unicode, Arial, Sans-serif">from the Noun Project</text></svg>