<svg xmlns="http://www.w3.org/2000/svg" data-name="Layer 1" viewBox="0 0 100 125" x="0px" y="0px"><title>53 all</title><path d="M74.81,24H25.19a11,11,0,0,0-11,11V65a11,11,0,0,0,11,11H74.81a11,11,0,0,0,11-11V35A11,11,0,0,0,74.81,24Zm0,6a4.94,4.94,0,0,1,2.43.66L52.57,46.6a5,5,0,0,1-5.06.05l-24.75-16A4.94,4.94,0,0,1,25.19,30Zm0,39.94H25.19a5,5,0,0,1-5-5V36.17L44.34,51.74A10.93,10.93,0,0,0,50,53.31a11.19,11.19,0,0,0,5.77-1.62L79.81,36.17V65A5,5,0,0,1,74.81,70Z"/><text x="0" y="115" fill="#000000" font-size="5px" font-weight="bold" font-family="'Helvetica Neue', Helvetica, Arial-Unicode, Arial, Sans-serif">Created by Prithvi</text><text x="0" y="120" fill="#000000" font-size="5px" font-weight="bold" font-family="'Helvetica Neue', Helvetica, Arial-Unicode, Arial, Sans-serif">from the Noun Project</text></svg>