<svg xmlns="http://www.w3.org/2000/svg" data-name="Layer 1" viewBox="0 0 5 6.25" x="0px" y="0px"><title>coffee_machine</title><path d="M4.55732,1.71752l-.002-.00165,0,0L4.553,1.71466h0l-.00243-.00074h0L4.548,1.71365H3.49018l.002-.176V1.5375L3.4921,1.5364l.00006-.00082-.001-.00491L3.49022,1.528l.00194-.17225V1.35562c0-.01938-.02169-.0339-.0663-.04439a.72006.72006,0,0,0-.279,0c-.04462.01049-.0663.025-.0663.04439v.02814a.06178.06178,0,0,0-.066.0103.06329.06329,0,0,0,.066.1059v.03562l.00006.00093-.00006.001h0v.02814a.06178.06178,0,0,0-.066.0103.06329.06329,0,0,0,.066.1059v.0318H2.90863l.002-.176V1.5375l-.00006-.0011.00006-.00082-.001-.00491L2.90867,1.528l.00194-.17225V1.35562c0-.01938-.02169-.0339-.0663-.04439a.72006.72006,0,0,0-.279,0c-.04462.01049-.0663.025-.0663.04439v.02814a.06178.06178,0,0,0-.066.0103A.06329.06329,0,0,0,2.499,1.5v.03562l.00006.00093-.00006.001h0v.02814a.06178.06178,0,0,0-.066.0103.06329.06329,0,0,0,.066.1059v.0318H2.33186l.002-.176V1.5375l-.00191-.00943.00191-.16992V1.358L2.332,1.34878l.00183-.16294V1.1857l-.00006-.0011.00006-.00082-.001-.00491L2.3319,1.17621,2.33384,1.004V1.00381c0-.01938-.02169-.0339-.0663-.04439a.72006.72006,0,0,0-.279,0c-.04462.01049-.0663.025-.0663.04439V1.032a.06178.06178,0,0,0-.066.0103.06329.06329,0,0,0,.066.1059v.03562l.00006.00093-.00006.001h0v.02814a.06178.06178,0,0,0-.066.0103.06329.06329,0,0,0,.066.1059v.05611a.06178.06178,0,0,0-.066.0103.06329.06329,0,0,0,.066.1059v.06329a.06178.06178,0,0,0-.066.0103.06329.06329,0,0,0,.066.1059v.0318H1.74552l.002-.176V1.5375l-.00191-.00943.00191-.16992V1.358l-.00183-.00923.00183-.16294V1.1857l-.00181-.00916.00181-.16062V1.01578l-.00006-.0011.00006-.00082L1.7465,1.009l-.00094-.00266L1.7475.834V.83389C1.7475.81452,1.72581.8,1.6812.7895A.63846.63846,0,0,0,1.54168.77586.63847.63847,0,0,0,1.40216.7895c-.04462.01049-.0663.025-.0663.04439V.862a.06177.06177,0,0,0-.066.0103.06329.06329,0,0,0,.066.1059v.03562l.00006.00093-.00006.001h0v.02814a.06177.06177,0,0,0-.066.0103.06329.06329,0,0,0,.066.1059v.05371a.06178.06178,0,0,0-.066.0103.06329.06329,0,0,0,.066.1059v.05611a.06178.06178,0,0,0-.066.0103.06329.06329,0,0,0,.066.1059v.06329a.06178.06178,0,0,0-.066.0103.06329.06329,0,0,0,.066.1059v.0318H1.164l.002-.176V1.5375l-.00006-.0011.00006-.00082-.001-.00491L1.164,1.528l.00194-.17225V1.35562c0-.01938-.02169-.0339-.0663-.04439a.6384.6384,0,0,0-.13952-.01365.63842.63842,0,0,0-.13952.01365c-.04462.01049-.0663.025-.0663.04439v.02814a.06178.06178,0,0,0-.066.0103.06329.06329,0,0,0,.066.1059v.03562l.00006.00093-.00006.001h0v.02814a.06178.06178,0,0,0-.066.0103.06329.06329,0,0,0,.066.1059v.0318H.452l-.00256.00025h0L.447,1.71465h0l-.00223.00119,0,0-.002.00164-.16154.16154-.00386.00931V3.88072l.00458.01.07873.06765-.00314.00852v.1053a.01316.01316,0,0,0,.01316.01316h.1783V4.211a.01316.01316,0,0,0,.01316.01316H.84927A.01316.01316,0,0,0,.86244,4.211V4.08534H4.13756V4.211a.01316.01316,0,0,0,.01316.01316h.28719A.01316.01316,0,0,0,4.45107,4.211V4.08534h.1783a.01316.01316,0,0,0,.01316-.01316v-.1053l-.00314-.00852.07873-.06765.00458-.01V1.88836l-.00386-.00931ZM4.53481,4.00636H.46519l.00066-.35659h4.0683Zm.01606-.38292-.00359-.00051h0l-.00356.00051H.4563L.45274,3.62294h0l-.00358.00051H.379V3.59712H4.621v.02633ZM.40143,3.57079l.044-.03769L.452,3.5349h.62414l.00529-.00112q.01713.00536.03929.01a1.11173,1.11173,0,0,0,.21632.01874,1.11173,1.11173,0,0,0,.21632-.01874l.03577-.00891.00084,0H1.802l.00387-.00058q.01651.00506.03755.00945a1.11173,1.11173,0,0,0,.21632.01874,1.11172,1.11172,0,0,0,.21632-.01874l.03563-.00887H2.5306l.03563.00887a1.25769,1.25769,0,0,0,.43265,0L3.0345,3.5349h.21387l.00344-.00047q.01638.005.03718.00934a1.25769,1.25769,0,0,0,.43265,0q.02071-.00432.037-.00929l.00322.00041h.785l.0073-.00222.04447.03811ZM4.53484,1.74v.7072H4.33129L4.324,2.445l-.00724.00218h-.043L4.26661,2.445l-.00724.00218H.74064L.73339,2.445l-.00724.00218H.6832L.676,2.445l-.00724.00218H.46516V1.74ZM3.03062,3.50857l-.00856.00317-.02845.00687a1.23294,1.23294,0,0,1-.42215,0l-.02292-.00537-.01005-.00467H2.53244c-.03645-.01175-.03926-.02186-.03926-.022,0-.00558.02333-.02893.13672-.042l.0421.03391.001.00121c-.02466-.002-.04808-.00474-.06974-.00813a.01259.01259,0,1,0-.0039.02488,1.32242,1.32242,0,0,0,.36628,0,.01259.01259,0,0,0-.0039-.02488c-.0239.00374-.04994.00666-.07743.00874l.00058-.00039L2.92947,3.444c.11816.01289.14245.03686.14245.04262,0,.00012-.00281.01023-.03926.022Zm-.727,0-.01013.00476-.0226.00528a1.08579,1.08579,0,0,1-.21107.0182,1.08581,1.08581,0,0,1-.21108-.0182c-.07369-.01538-.07829-.03186-.07829-.032,0-.00558.02334-.02893.13673-.042l.0421.03391.001.00121c-.02466-.002-.04808-.00474-.06974-.00813a.01259.01259,0,1,0-.0039.02488,1.32242,1.32242,0,0,0,.36628,0,.01259.01259,0,0,0-.0039-.02488c-.0239.00374-.04994.00666-.07743.00874l.00058-.00039L2.20671,3.444c.11816.01289.14245.03686.14245.04262,0,.00012-.00281.01023-.03926.022ZM.46516,2.4735H.66279v.11727a.0731.0731,0,0,1-.02668.06294c-.02374.02611-.02338.0586-.02278.11242l.00022.03045v.4453h-.006a.0118.0118,0,0,0-.0118.0118v.10769a.0118.0118,0,0,0,.0118.0118H.70568a.0118.0118,0,0,0,.0118-.0118V3.25369a.0118.0118,0,0,0-.0118-.0118H.6973V2.81095L.69709,2.7802c-.0006-.054-.0002-.07667.01594-.09442a.09827.09827,0,0,0,.03353-.08065V2.4735h.55794V3.16a.58884.58884,0,0,0-.11054.01315c-.04462.01049-.0663.025-.0663.04439v.02814a.06178.06178,0,0,0-.066.0103.06329.06329,0,0,0,.066.1059v.03562a.03182.03182,0,0,0,.01793.02645.42435.42435,0,0,0-.07459.01788c-.033.012-.049.02659-.049.04475a.03056.03056,0,0,0,.01014.022h-.567Zm.25507,0v.13163a.0731.0731,0,0,1-.02668.06294c-.02374.02611-.02338.0586-.02278.11242L.671,2.81095v.43094H.63987v-.4453L.63965,2.76584c-.0006-.054-.0002-.07667.01594-.09442a.09827.09827,0,0,0,.03353-.08065V2.4735Zm-.10087.792H.69388v.08409H.61936ZM1.84776,2.9318c0,.07682-.04156.13931-.09265.13931s-.09265-.06249-.09265-.13931c0-.07556.05691-.13931.09265-.13931S1.84776,2.85625,1.84776,2.9318Zm-.107-.16463a.58827.58827,0,0,1-.14889-.01625v-.0434h.32649v.04264A.96306.96306,0,0,1,1.74075,2.76718Zm.19407-.08257-.005-.0012H1.5804l-.005.0012H1.48417V2.4735h.54188v.21111Zm-.46211.02292h.09624v.052a.01146.01146,0,0,0,.0077.01082.4911.4911,0,0,0,.12964.01908.15905.15905,0,0,0-.028.02885.1886.1886,0,0,0-.03869.11356c0,.08945.05184.16223.11556.16223s.11556-.07278.11556-.16223A.18754.18754,0,0,0,1.802,2.78806a.90258.90258,0,0,0,.13032-.0174.01146.01146,0,0,0,.00891-.01117v-.052h.09624A.01146.01146,0,0,0,2.049,2.69607V2.4735h.13384v.69687a.67488.67488,0,0,0-.12658-.01087.63847.63847,0,0,0-.13952.01365c-.04462.01049-.0663.025-.0663.04439v.02814a.06178.06178,0,0,0-.066.0103.0634.0634,0,0,0-.01829.06642h-.228l.00118-.10472V3.21754c0-.01938-.02169-.0339-.0663-.04439a.63845.63845,0,0,0-.13952-.01365l-.00606,0v-.686h.13384v.22257A.01146.01146,0,0,0,1.47271,2.70753Zm.31574.59355a.0379.0379,0,0,1,.01272-.02628.03884.03884,0,0,1,.04923-.00046v.04806H1.79352A.03787.03787,0,0,1,1.78845,3.30108ZM2.056,3.4777a.20537.20537,0,0,1-.08686-.01494l-.00034-.00041L1.96854,3.462,1.967,3.46045l-.00009-.00009L1.9523,3.44856A.77517.77517,0,0,0,2.161,3.44843l-.01372.01113A.21294.21294,0,0,1,2.056,3.4777Zm.17878-.078a.11988.11988,0,0,1-.04995.01885.63188.63188,0,0,1-.12864.01182.565.565,0,0,1-.14715-.01649c-.02823-.00826-.033-.01571-.03349-.01665V3.34364a.01138.01138,0,0,0,0-.01955v-.076a.19079.19079,0,0,0,.04112.01383.72006.72006,0,0,0,.279,0,.19237.19237,0,0,0,.04078-.01365Zm-.04995-.16112a.706.706,0,0,1-.25728,0c-.03783-.00825-.05008-.01778-.05187-.021.00179-.00326.014-.01279.05187-.021a.706.706,0,0,1,.25728,0c.03783.00825.05008.01778.05187.021C2.23495,3.2208,2.22269,3.23033,2.18486,3.23858Zm-.85139-.05389a.63189.63189,0,0,1,.12864.01182c.03783.00825.05008.01778.05187.021-.00179.00326-.014.01279-.05187.021a.63184.63184,0,0,1-.12864.01182.63182.63182,0,0,1-.12864-.01182c-.03783-.00825-.05008-.01778-.05187-.021.00179-.00326.014-.01279.05187-.021A.6319.6319,0,0,1,1.33347,3.18469ZM1.194,3.26194a.63846.63846,0,0,0,.13952.01365A.63845.63845,0,0,0,1.473,3.26194a.19238.19238,0,0,0,.04078-.01365l-.0017.15142a.11988.11988,0,0,1-.04995.01885.63189.63189,0,0,1-.12864.01182.565.565,0,0,1-.14715-.01649c-.02823-.00826-.033-.01571-.03349-.01665V3.2481A.19078.19078,0,0,0,1.194,3.26194Zm-.0663.07105a.03812.03812,0,0,1-.04923-.05819.03884.03884,0,0,1,.04923-.00046Zm.20563.14471a.20536.20536,0,0,1-.08686-.01494l-.00034-.00041L1.24578,3.462l-.00156-.00155-.00009-.00009-.01458-.01179a.77518.77518,0,0,0,.20873-.00013l-.01372.01113A.213.213,0,0,1,1.33327,3.4777Zm-.2856.00889c0-.00558.02333-.02893.13672-.042l.0421.03391.001.00121c-.02466-.002-.04808-.00474-.06974-.00813a.01259.01259,0,0,0-.0039.02488,1.214,1.214,0,0,0,.18314.01274,1.214,1.214,0,0,0,.18314-.01274.01259.01259,0,0,0-.0039-.02488c-.0239.00374-.04994.00666-.07743.00874l.00058-.00039L1.484,3.444c.11816.01289.14245.03686.14245.04262,0,.00016-.0046.01664-.07829.032a1.08579,1.08579,0,0,1-.21107.0182,1.0858,1.0858,0,0,1-.21107-.0182C1.05227,3.50323,1.04767,3.48675,1.04767,3.48659Zm.55363-.04537a.44776.44776,0,0,0-.07855-.01811.031.031,0,0,0,.01654-.0256l-.00195-.00667.00051-.04552h.24131l.00006.00007a.06326.06326,0,0,0,.07117.0165v.03562a.03182.03182,0,0,0,.01793.02645.42435.42435,0,0,0-.07459.01788c-.033.012-.049.02659-.049.04475a.03056.03056,0,0,0,.01014.022H1.642a.03056.03056,0,0,0,.01014-.022C1.6521,3.46811,1.63549,3.45328,1.6013,3.44122Zm.72275,0a.44778.44778,0,0,0-.07855-.01811.031.031,0,0,0,.01654-.0256l-.00195-.00667L2.262,3.21769V3.21754c0-.01786-.01848-.03159-.05632-.04185V2.4735h.57419v.686H2.779a.63847.63847,0,0,0-.13952.01365c-.04462.01049-.0663.025-.0663.04439v.02814a.06178.06178,0,0,0-.066.0103.06329.06329,0,0,0,.066.1059v.03562a.03182.03182,0,0,0,.01793.02645.42433.42433,0,0,0-.07459.01788c-.033.012-.049.02659-.049.04475a.03056.03056,0,0,0,.01014.022H2.36472a.03056.03056,0,0,0,.01014-.022C2.37486,3.46811,2.35824,3.45328,2.32405,3.44122Zm.90648-.64873c.03574,0,.09265.06376.09265.13931,0,.07682-.04156.13931-.09265.13931s-.09265-.06249-.09265-.13931C3.13788,2.85625,3.19479,2.79249,3.23053,2.79249Zm-.16325-.04232V2.70753h.32649v.0434a.58807.58807,0,0,1-.14889.01625A.96437.96437,0,0,1,3.06728,2.75017Zm.343-.06555-.005-.0012H3.05583l-.005.0012H2.95959V2.4735h.54188v.21111Zm-.46211.02292h.09624v.052a.01146.01146,0,0,0,.00891.01117.90236.90236,0,0,0,.13022.01739.15706.15706,0,0,0-.02983.03019A.18861.18861,0,0,0,3.115,2.9318c0,.08945.05184.16223.11556.16223s.11556-.07278.11556-.16223a.18812.18812,0,0,0-.06686-.1424A.4914.4914,0,0,0,3.409,2.77031a.01146.01146,0,0,0,.00769-.01082v-.052h.09624a.01146.01146,0,0,0,.01146-.01146V2.4735h.13384v.70419l-.017-.00454a.72006.72006,0,0,0-.279,0c-.04462.01049-.0663.025-.0663.04439v.02814a.06178.06178,0,0,0-.066.0103.0634.0634,0,0,0-.01829.06642h-.228l.00118-.10472V3.21754c0-.01938-.02169-.0339-.0663-.04439a.59841.59841,0,0,0-.11568-.0133l0-.00025V2.4735h.13384v.22257A.01146.01146,0,0,0,2.94813,2.70753Zm.28583.59355a.0379.0379,0,0,1,.01272-.02628.03884.03884,0,0,1,.04923-.00046v.04806H3.239A.03788.03788,0,0,1,3.234,3.30108Zm.26757.17662a.20536.20536,0,0,1-.08686-.01494l-.00034-.00041L3.414,3.462l-.00156-.00155-.00009-.00009L3.3978,3.44856a.77518.77518,0,0,0,.20873-.00013l-.01372.01113A.213.213,0,0,1,3.50153,3.4777Zm.17879-.078a.11988.11988,0,0,1-.04995.01885.63188.63188,0,0,1-.12864.01182.565.565,0,0,1-.14715-.01649c-.02823-.00826-.033-.01571-.03349-.01665V3.2481a.19079.19079,0,0,0,.04112.01383.72006.72006,0,0,0,.279,0A.19238.19238,0,0,0,3.682,3.24829Zm-.04995-.16112a.706.706,0,0,1-.25728,0c-.03783-.00825-.05008-.01778-.05187-.021.00179-.00326.014-.01279.05187-.021a.70595.70595,0,0,1,.25728,0c.03783.00825.05008.01778.05187.021C3.68045,3.2208,3.6682,3.23033,3.63037,3.23858Zm-.72275-.04207c.03783.00825.05008.01778.05187.021-.00179.00326-.014.01279-.05187.021a.706.706,0,0,1-.25728,0c-.03783-.00825-.05008-.01778-.05187-.021.00179-.00326.014-.01279.05187-.021a.706.706,0,0,1,.25728,0Zm-.26816.06543a.72006.72006,0,0,0,.279,0,.1924.1924,0,0,0,.04078-.01365l-.0017.15142a.11988.11988,0,0,1-.04995.01885.63188.63188,0,0,1-.12864.01182.565.565,0,0,1-.14715-.01649c-.02823-.00826-.033-.01571-.03349-.01665V3.2481A.19079.19079,0,0,0,2.63946,3.26194Zm-.0663.07105a.03812.03812,0,0,1-.04923-.05819.03884.03884,0,0,1,.04923-.00046Zm.20562.14471a.20537.20537,0,0,1-.08686-.01494l-.00034-.00041L2.69129,3.462l-.00156-.00155-.00009-.00009-.01458-.01179a.77517.77517,0,0,0,.20873-.00013l-.01372.01113A.213.213,0,0,1,2.77878,3.4777Zm.268-.03648a.44779.44779,0,0,0-.07855-.01811.031.031,0,0,0,.01654-.0256l-.00195-.00667.00051-.04552h.24131l.00006.00007a.06326.06326,0,0,0,.07117.0165v.03562a.03182.03182,0,0,0,.01793.02645.42435.42435,0,0,0-.07459.01788c-.033.012-.049.02659-.049.04475a.03056.03056,0,0,0,.01014.022H3.08747a.03056.03056,0,0,0,.01014-.022C3.09761,3.46811,3.081,3.45328,3.04681,3.44122Zm.16913.04537c0-.00558.02334-.02893.13673-.042l.0421.03391.001.00121c-.02466-.002-.04808-.00474-.06974-.00813a.01259.01259,0,1,0-.0039.02488,1.32243,1.32243,0,0,0,.36628,0,.01259.01259,0,0,0-.0039-.02488c-.0239.00374-.04994.00666-.07743.00874l.00058-.00039L3.65222,3.444c.11816.01289.14245.03686.14245.04262,0,.00016-.0046.01664-.07829.032a1.23294,1.23294,0,0,1-.42215,0C3.22053,3.50323,3.21593,3.48675,3.21593,3.48659Zm.55363-.04537A.44778.44778,0,0,0,3.691,3.42311a.031.031,0,0,0,.01654-.0256L3.7056,3.39085l.00195-.17316V3.21754c0-.01226-.00871-.02258-.0264-.03116V2.4735h.09674V2.597a.04428.04428,0,0,0-.02752.04093v.17748c0,.00933.00734.025.05651.025s.05651-.01565.05651-.025V2.6379a.04421.04421,0,0,0-.0219-.03811V2.4735h.412v.13163a.09827.09827,0,0,0,.03353.08065c.01614.01775.01654.04039.01594.09442l-.00022.03074v.43094H4.29432a.0118.0118,0,0,0-.0118.0118v.10769a.0118.0118,0,0,0,.0118.0118h.09812a.0118.0118,0,0,0,.0118-.0118V3.25369a.0118.0118,0,0,0-.0118-.0118h-.006v-.4453l.00022-.03045c.0006-.05382.001-.08631-.02278-.11242a.0731.0731,0,0,1-.02668-.06294V2.4735h.19763V3.50857H3.81022a.03056.03056,0,0,0,.01014-.022C3.82037,3.46811,3.80375,3.45328,3.76956,3.44122Zm.03125-.85114v-.1135h.01777v.1135Zm-.00621.02651h.02457a.02133.02133,0,0,1,.02131.02131v.17471a.12115.12115,0,0,1-.06719,0V2.6379A.02133.02133,0,0,1,3.79459,2.61659Zm.51629-.14309v.11727a.09826.09826,0,0,0,.03353.08065c.01614.01775.01654.04039.01594.09442l-.00022.03074v.4453H4.329V2.81095l.00021-.03045c.0006-.05382.001-.08631-.02278-.11242a.07311.07311,0,0,1-.02668-.06294V2.4735Zm-.00476.792h.07452v.08409H4.30612ZM3.46493,1.53778a.11985.11985,0,0,1-.04995.01885.63182.63182,0,0,1-.12864.01182A.565.565,0,0,1,3.13919,1.552c-.02823-.00826-.033-.01571-.03349-.01665V1.38617A.1907.1907,0,0,0,3.14682,1.4a.72006.72006,0,0,0,.279,0,.19231.19231,0,0,0,.04078-.01365Zm-.30723-.2032a.706.706,0,0,1,.25728,0c.03783.00825.05008.01778.05187.021-.00179.00326-.014.01279-.05187.021a.70595.70595,0,0,1-.25728,0c-.03783-.00825-.05008-.01778-.05187-.021C3.10762,1.35236,3.11987,1.34283,3.1577,1.33458Zm-.12954.13215a.03814.03814,0,0,1,.00314-.05385.03884.03884,0,0,1,.04923-.00046v.05864A.03816.03816,0,0,1,3.02816,1.46673Zm0,.18188a.03814.03814,0,0,1,.00314-.05385.03884.03884,0,0,1,.04923-.00046v.05864A.03816.03816,0,0,1,3.02816,1.64861Zm.07754-.08055a.19069.19069,0,0,0,.04112.01383.72006.72006,0,0,0,.279,0,.19231.19231,0,0,0,.04078-.01365L3.465,1.71365H3.1057Zm-.22232-.03028a.11986.11986,0,0,1-.04995.01885.63182.63182,0,0,1-.12864.01182A.565.565,0,0,1,2.55764,1.552c-.02823-.00826-.033-.01571-.03349-.01665V1.38617A.1907.1907,0,0,0,2.56527,1.4a.72006.72006,0,0,0,.279,0,.1923.1923,0,0,0,.04078-.01365Zm-.30723-.2032a.706.706,0,0,1,.25728,0c.03783.00825.05008.01778.05187.021-.00179.00326-.014.01279-.05187.021a.70595.70595,0,0,1-.25728,0c-.03783-.00825-.05008-.01778-.05187-.021C2.52606,1.35236,2.53832,1.34283,2.57614,1.33458Zm-.12954.13215a.03815.03815,0,0,1,.00314-.05385A.03884.03884,0,0,1,2.499,1.41242v.05864A.03816.03816,0,0,1,2.4466,1.46673Zm0,.18188a.03815.03815,0,0,1,.00314-.05385A.03884.03884,0,0,1,2.499,1.5943v.05864A.03816.03816,0,0,1,2.4466,1.64861Zm.07754-.08055a.19069.19069,0,0,0,.04112.01383.72006.72006,0,0,0,.279,0,.1923.1923,0,0,0,.04078-.01365l-.00164.14541h-.3593Zm-.57677-.03179v-.1477a.19079.19079,0,0,0,.04112.01383.72006.72006,0,0,0,.279,0,.19234.19234,0,0,0,.04078-.01365l-.0017.15093a.11978.11978,0,0,1-.05.01885.706.706,0,0,1-.25728,0c-.03783-.00825-.05008-.01778-.05187-.021ZM2.30661,1.186a.11986.11986,0,0,1-.04995.01885.63188.63188,0,0,1-.12864.01182.565.565,0,0,1-.14715-.01649c-.02823-.00826-.033-.01571-.03349-.01665V1.03437a.19079.19079,0,0,0,.04112.01383.72006.72006,0,0,0,.279,0,.19238.19238,0,0,0,.04078-.01365Zm-.31811.04412a.72006.72006,0,0,0,.279,0,.19234.19234,0,0,0,.04078-.01365l-.00162.14368a.119.119,0,0,1-.05.01892.706.706,0,0,1-.25728,0c-.03783-.00825-.05008-.01778-.05187-.021l-.00012-.00124V1.21626A.19074.19074,0,0,0,1.9885,1.23009ZM1.99938.98278a.706.706,0,0,1,.25728,0c.03783.00825.05008.01778.05187.021-.00179.00326-.014.01279-.05187.021a.706.706,0,0,1-.25728,0c-.03783-.00825-.05008-.01778-.05187-.021C1.9493,1.00056,1.96155.991,1.99938.98278Zm-.12954.13215A.03814.03814,0,0,1,1.873,1.06107a.03884.03884,0,0,1,.04923-.00046v.05864A.03816.03816,0,0,1,1.86983,1.11492Zm0,.18188A.03814.03814,0,0,1,1.873,1.243.03884.03884,0,0,1,1.9222,1.2425v.05864A.03816.03816,0,0,1,1.86983,1.29681Zm0,.17231A.03814.03814,0,0,1,1.873,1.41527a.03884.03884,0,0,1,.04923-.00046v.05864A.03816.03816,0,0,1,1.86983,1.46912Zm0,.17949A.03814.03814,0,0,1,1.873,1.59476.03884.03884,0,0,1,1.9222,1.5943v.05864A.03816.03816,0,0,1,1.86983,1.64861Zm.07755-.08055a.1907.1907,0,0,0,.04112.01383.72006.72006,0,0,0,.279,0,.19229.19229,0,0,0,.04078-.01365l-.00163.14541h-.3593ZM1.361,1.53627v-.1477a.1908.1908,0,0,0,.04112.01383.63845.63845,0,0,0,.13952.01365A.63846.63846,0,0,0,1.6812,1.4024.19234.19234,0,0,0,1.722,1.38875l-.0017.15093a.11978.11978,0,0,1-.05.01885.706.706,0,0,1-.25728,0c-.03783-.00825-.05008-.01778-.05187-.021Zm.35923-.52021a.11986.11986,0,0,1-.04995.01885.63182.63182,0,0,1-.12864.01182.565.565,0,0,1-.14715-.01649c-.02823-.00826-.033-.01571-.03349-.01665V.86445a.19069.19069,0,0,0,.04112.01383.63845.63845,0,0,0,.13952.01365A.63846.63846,0,0,0,1.6812.87829.19235.19235,0,0,0,1.722.86464Zm-.31811.04412a.63845.63845,0,0,0,.13952.01365.63846.63846,0,0,0,.13952-.01365A.19234.19234,0,0,0,1.722,1.04652l-.00159.14126a.11876.11876,0,0,1-.05006.01895.706.706,0,0,1-.25728,0c-.03783-.00825-.05008-.01778-.05187-.021L1.361,1.18446V1.04634A.19075.19075,0,0,0,1.40216,1.06017Zm0,.16992a.63845.63845,0,0,0,.13952.01365.63846.63846,0,0,0,.13952-.01365A.19234.19234,0,0,0,1.722,1.21644l-.00162.14368a.119.119,0,0,1-.05.01892.706.706,0,0,1-.25728,0c-.03783-.00825-.05008-.01778-.05187-.021L1.361,1.35677V1.21626A.19075.19075,0,0,0,1.40216,1.23009ZM1.413.81286a.70591.70591,0,0,1,.25728,0c.03783.00825.05008.01778.05187.021-.00179.00326-.014.01279-.05187.021a.706.706,0,0,1-.25728,0C1.37521.84668,1.363.83715,1.36116.83389,1.363.83064,1.37521.8211,1.413.81286ZM1.2835.945A.03815.03815,0,0,1,1.28663.89115.03884.03884,0,0,1,1.33586.89069V.94934A.03816.03816,0,0,1,1.2835.945Zm0,.18188A.03815.03815,0,0,1,1.28663,1.073a.03884.03884,0,0,1,.04923-.00046v.05864A.03816.03816,0,0,1,1.2835,1.12689Zm0,.16992A.03814.03814,0,0,1,1.28663,1.243a.03884.03884,0,0,1,.04923-.00046v.05864A.03816.03816,0,0,1,1.2835,1.29681Zm0,.17231a.03814.03814,0,0,1,.00314-.05385.03884.03884,0,0,1,.04923-.00046v.05864A.03816.03816,0,0,1,1.2835,1.46912Zm0,.17949a.03814.03814,0,0,1,.00314-.05385.03884.03884,0,0,1,.04923-.00046v.05864A.03816.03816,0,0,1,1.2835,1.64861ZM1.361,1.56806a.19071.19071,0,0,0,.04112.01383.6384.6384,0,0,0,.13952.01365.63841.63841,0,0,0,.13952-.01365A.19229.19229,0,0,0,1.722,1.56824l-.00163.14541H1.361Zm-.22232-.03028a.11985.11985,0,0,1-.04995.01885.63183.63183,0,0,1-.12864.01182A.565.565,0,0,1,.813,1.552C.78475,1.54369.78,1.53624.77949,1.53531V1.38617A.19068.19068,0,0,0,.82061,1.4a.63841.63841,0,0,0,.13952.01365A.6384.6384,0,0,0,1.09964,1.4a.19229.19229,0,0,0,.04078-.01365Zm-.30723-.2032a.6319.6319,0,0,1,.12864-.01182.63189.63189,0,0,1,.12864.01182c.03783.00825.05008.01778.05187.021-.00179.00326-.014.01279-.05187.021a.63183.63183,0,0,1-.12864.01182.63181.63181,0,0,1-.12864-.01182c-.03783-.00825-.05008-.01778-.05187-.021C.7814,1.35236.79366,1.34283.83148,1.33458Zm-.12954.13215a.03814.03814,0,0,1,.00314-.05385.03884.03884,0,0,1,.04923-.00046v.05864A.03816.03816,0,0,1,.70194,1.46673Zm0,.18188a.03814.03814,0,0,1,.00314-.05385A.03884.03884,0,0,1,.75431,1.5943v.05864A.03816.03816,0,0,1,.70194,1.64861Zm.07755-.08055a.1907.1907,0,0,0,.04112.01383.6384.6384,0,0,0,.13952.01365.63842.63842,0,0,0,.13952-.01365.19229.19229,0,0,0,.04078-.01365l-.00163.14541H.77949Zm-.47587.32575.13522-.13522V3.50406L.35728,3.574l-.00012.00012L.356,3.57528l-.00017.00019-.001.00143-.00018.0003-.00141.00329-.00009.00033-.00032.00176h0L.35268,3.584v.05265a.01316.01316,0,0,0,.01316.01316H.43953L.43889,3.9909.30362,3.87467Zm.53249,2.304H.57525V4.08534H.83611Zm3.58864,0H4.16389V4.08534h.26086ZM4.61621,4.059H.38379V3.97827l.05963.05124.00009.00006.00133.001.00033.0002.00124.00067.00029.00014.00156.00057.00031.00008L.4499,4.0325l.00045.00007.00159.00011H4.5468l.00061,0,.00058,0,.00858-.00318.05963-.05123Zm.08017-.18434-.13527.11623-.00064-.34113h.07368a.01316.01316,0,0,0,.01316-.01316V3.584l-.00007-.00136h0l-.00032-.00176-.00009-.00033-.00141-.0033L4.64526,3.5769l-.001-.00143L4.644,3.57528l-.0012-.0012L4.64272,3.574l-.08156-.06991V1.75859l.13522.13522Z"/><path d="M.72034,1.99233a.16976.16976,0,1,0,.16975.16976A.16995.16995,0,0,0,.72034,1.99233Zm0,.31591a.14615.14615,0,1,1,.14615-.14615A.14632.14632,0,0,1,.72034,2.30823Z"/><path d="M1.38655,2.08237a.07642.07642,0,1,0,.07642.07642A.07651.07651,0,0,0,1.38655,2.08237Zm0,.12923a.05281.05281,0,1,1,.05281-.05281A.05287.05287,0,0,1,1.38655,2.21161Z"/><path d="M1.57083,2.08237a.07642.07642,0,1,0,.07642.07642A.07651.07651,0,0,0,1.57083,2.08237Zm0,.12923a.05281.05281,0,1,1,.05281-.05281A.05287.05287,0,0,1,1.57083,2.21161Z"/><path d="M1.75511,2.08237a.07642.07642,0,1,0,.07642.07642A.0765.0765,0,0,0,1.75511,2.08237Zm0,.12923a.05281.05281,0,1,1,.05281-.05281A.05287.05287,0,0,1,1.75511,2.21161Z"/><path d="M1.93939,2.08237a.07642.07642,0,1,0,.07642.07642A.07651.07651,0,0,0,1.93939,2.08237Zm0,.12923a.05281.05281,0,1,1,.05281-.05281A.05287.05287,0,0,1,1.93939,2.21161Z"/><path d="M2.12367,2.08237a.07642.07642,0,1,0,.07642.07642A.07651.07651,0,0,0,2.12367,2.08237Zm0,.12923a.05281.05281,0,1,1,.05281-.05281A.05287.05287,0,0,1,2.12367,2.21161Z"/><path d="M.55371,1.93367H4.44629a.0118.0118,0,0,0,.0118-.0118V1.8046a.0118.0118,0,0,0-.0118-.0118H.55371a.0118.0118,0,0,0-.0118.0118v.11727A.0118.0118,0,0,0,.55371,1.93367Zm.0118-.11727h3.869v.09366H.56551Z"/><path d="M3.416,2.08237a.07642.07642,0,1,0,.07642.07642A.07651.07651,0,0,0,3.416,2.08237Zm0,.12923a.05281.05281,0,1,1,.05281-.05281A.05287.05287,0,0,1,3.416,2.21161Z"/><path d="M3.23173,2.08237a.07642.07642,0,1,0,.07642.07642A.0765.0765,0,0,0,3.23173,2.08237Zm0,.12923a.05281.05281,0,1,1,.05281-.05281A.05287.05287,0,0,1,3.23173,2.21161Z"/><path d="M3.04745,2.08237a.07642.07642,0,1,0,.07642.07642A.0765.0765,0,0,0,3.04745,2.08237Zm0,.12923a.05281.05281,0,1,1,.05281-.05281A.05287.05287,0,0,1,3.04745,2.21161Z"/><path d="M2.86317,2.08237a.07642.07642,0,1,0,.07642.07642A.0765.0765,0,0,0,2.86317,2.08237Zm0,.12923A.05281.05281,0,1,1,2.916,2.15879.05287.05287,0,0,1,2.86317,2.21161Z"/><path d="M2.67889,2.08237a.07642.07642,0,1,0,.07642.07642A.07651.07651,0,0,0,2.67889,2.08237Zm0,.12923a.05281.05281,0,1,1,.05281-.05281A.05287.05287,0,0,1,2.67889,2.21161Z"/><path d="M3.87132,1.99127a.16513.16513,0,1,0,.16513.16513A.16532.16532,0,0,0,3.87132,1.99127ZM3.985,2.172h.02423a.13821.13821,0,0,1-.03284.075l-.01658-.01658A.01316.01316,0,0,0,3.9412,2.249l.0162.0162a.13808.13808,0,0,1-.07531.02957V2.27247a.01316.01316,0,1,0-.02633,0v.02184a.1382.1382,0,0,1-.07371-.03173l.0153-.0153a.01316.01316,0,0,0-.01861-.01861l-.01514.01514a.13814.13814,0,0,1-.03044-.07425h.02209a.01316.01316,0,1,0,0-.02633H3.73315A.13816.13816,0,0,1,3.764,2.06843l.0164.0164.00931.00386L3.799,2.08483a.01316.01316,0,0,0,0-.01861l-.01646-.01646a.13818.13818,0,0,1,.07557-.03152v.02449a.01316.01316,0,0,0,.02633,0V2.01823a.13819.13819,0,0,1,.0761.032l-.01769.01769a.01316.01316,0,0,0,0,.01861l.00931.00386.00931-.00386L3.979,2.069a.13812.13812,0,0,1,.03063.07665H3.985a.01316.01316,0,1,0,0,.02633Z"/><path d="M3.91077,2.09833,3.8874,2.1217a.03842.03842,0,1,0,.01861.01861l.02337-.02337a.01316.01316,0,0,0-.01861-.01861Z"/><path d="M4.14225,2.03963a.16532.16532,0,0,0,0,.23353h0a.16513.16513,0,1,0,0-.23353Zm.23164.12943h.02328a.13819.13819,0,0,1-.03115.07572l-.01732-.01732a.01316.01316,0,0,0-.01861.01861l.01732.01732a.13819.13819,0,0,1-.07643.0312v-.025a.01316.01316,0,1,0-.02633,0v.0248a.13812.13812,0,0,1-.07585-.03254l.01744-.01744a.01316.01316,0,0,0-.01861-.01861l-.01714.01714a.13822.13822,0,0,1-.02981-.07625h.02345a.01316.01316,0,1,0,0-.02633H4.12124a.13807.13807,0,0,1,.03234-.07416l.01575.01575.00931.00386.00931-.00386a.01316.01316,0,0,0,0-.01861L4.1725,2.04788a.1382.1382,0,0,1,.07455-.02968v.02163a.01316.01316,0,1,0,.02633,0V2.01842a.13816.13816,0,0,1,.074.031L4.33179,2.065a.01316.01316,0,0,0,0,.01861l.00931.00386.00931-.00386L4.366,2.068a.13818.13818,0,0,1,.03106.07473H4.37389a.01316.01316,0,0,0,0,.02633Z"/><path d="M4.23194,2.12932a.03821.03821,0,0,0,.01391.063v.033a.01316.01316,0,0,0,.02633,0v-.033a.03827.03827,0,1,0-.04024-.063Z"/><path d="M.77026,2.09354.6518,2.212a.01316.01316,0,0,0,0,.01861l.00931.00386.00931-.00386.11846-.11846a.01316.01316,0,1,0-.01862-.01861Z"/><path d="M1.10877,2.9701A.16975.16975,0,1,0,.939,3.13985.16995.16995,0,0,0,1.10877,2.9701ZM.939,3.11625a.14615.14615,0,1,1,.14615-.14615A.14632.14632,0,0,1,.939,3.11625Z"/><path d="M.8891,2.90156a.01316.01316,0,1,0-.01861.01861l.11846.11846.00931.00386.00931-.00386a.01316.01316,0,0,0,0-.01861Z"/><path d="M4.067,3.13985a.16976.16976,0,1,0-.16975-.16975A.16995.16995,0,0,0,4.067,3.13985Zm0-.31591a.14615.14615,0,1,1-.14615.14615A.14631.14631,0,0,1,4.067,2.82394Z"/><path d="M4.11689,3.03863l.00931.00386.00931-.00386a.01316.01316,0,0,0,0-.01861L4.017,2.90156a.01316.01316,0,1,0-.01861.01861Z"/><text x="0" y="20" fill="#000000" font-size="5px" font-weight="bold" font-family="'Helvetica Neue', Helvetica, Arial-Unicode, Arial, Sans-serif">Created by Alice Noir</text><text x="0" y="25" fill="#000000" font-size="5px" font-weight="bold" font-family="'Helvetica Neue', Helvetica, Arial-Unicode, Arial, Sans-serif">from the Noun Project</text></svg>