<svg xmlns:dc="http://purl.org/dc/elements/1.1/" xmlns:cc="http://creativecommons.org/ns#" xmlns:rdf="http://www.w3.org/1999/02/22-rdf-syntax-ns#" xmlns:svg="http://www.w3.org/2000/svg" xmlns="http://www.w3.org/2000/svg" xmlns:sodipodi="http://sodipodi.sourceforge.net/DTD/sodipodi-0.dtd" xmlns:inkscape="http://www.inkscape.org/namespaces/inkscape" version="1.1" x="0px" y="0px" viewBox="0 0 100 125"><g transform="translate(0,-952.36218)"><path style="text-indent:0;text-transform:none;direction:ltr;block-progression:tb;baseline-shift:baseline;color:#000000;enable-background:accumulate;" d="m 50,957.36218 c -24.81728,0 -44.9999998,20.1827 -44.9999998,45.00002 0,24.8173 20.1827198,45 44.9999998,45 24.81728,0 45,-20.1827 45,-45 0,-24.81732 -20.18272,-45.00002 -45,-45.00002 z m 0,6 c 21.57464,0 39,17.4254 39,39.00002 0,8.909 -2.9921,17.0971 -8,23.6562 l 0,-3.6562 c 0,-8.2581 -6.7419,-15 -15,-15 l -32,0 c -8.2581,0 -15,6.7419 -15,15 l 0,3.6562 c -5.0079,-6.5591 -8,-14.7472 -8,-23.6562 0,-21.57462 17.42536,-39.00002 39,-39.00002 z m 0,3 c -9.58493,0 -17,8.7448 -17,19 0,10.25521 7.41507,19.00002 17,19.00002 9.58493,0 17,-8.74481 17,-19.00002 0,-10.2552 -7.41507,-19 -17,-19 z m 0,6 c 5.87905,0 11,5.5821 11,13 0,7.41791 -5.12095,13.00001 -11,13.00001 -5.87905,0 -11,-5.5821 -11,-13.00001 0,-7.4179 5.12095,-13 11,-13 z m -16,41.00002 32,0 c 5.03788,0 9,3.9621 9,9 l 0,9.9375 c -6.76542,5.6517 -15.47378,9.0625 -25,9.0625 -9.52622,0 -18.23458,-3.4108 -25,-9.0625 l 0,-9.9375 c 0,-5.0379 3.96212,-9 9,-9 z" fill="#000000" fill-opacity="1" stroke="none" marker="none" visibility="visible" display="inline" overflow="visible"/></g><text x="0" y="115" fill="#000000" font-size="5px" font-weight="bold" font-family="'Helvetica Neue', Helvetica, Arial-Unicode, Arial, Sans-serif">Created by Kimmi Studio</text><text x="0" y="120" fill="#000000" font-size="5px" font-weight="bold" font-family="'Helvetica Neue', Helvetica, Arial-Unicode, Arial, Sans-serif">from the Noun Project</text></svg>